<svg xmlns="http://www.w3.org/2000/svg" width="1280" height="320" viewBox="0 0 1280 320" fill="none" role="img" aria-label="Vibecarbon - Idea to production SaaS. Launch in minutes with auth, billing, email, templates, and more. Deploy, scale, backup, restore, and failover with simple commands. Deployment modes: compose, compose-ha, k8s, k8s-ha.">
<!-- Vibecarbon hero banner (light theme). GENERATED by scripts/banner-generator.py - do not hand-edit.
     Text is outlined, so copy changes must go through that script.
     Mark, wordmark and gradient are emitted verbatim from
     carbon/src/client/assets/logo-light.svg. -->
<defs>
<linearGradient id="vc-mark-light" gradientUnits="userSpaceOnUse" x1="0" y1="7.41113" x2="0" y2="1004.59"><stop stop-color="#5EEAD4"/><stop offset="1" stop-color="#0D9488"/></linearGradient>
<radialGradient id="vc-wash-light" gradientUnits="userSpaceOnUse" cx="0" cy="0" r="1" gradientTransform="translate(960 -64) scale(1536 256)"><stop offset="0" stop-color="#0D9488" stop-opacity="0.05"/><stop offset="0.55" stop-color="#0D9488" stop-opacity="0"/></radialGradient>
<clipPath id="vc-panel-light"><rect width="1280" height="320" rx="16"/></clipPath>
</defs>
<g clip-path="url(#vc-panel-light)">
<rect width="1280" height="320" fill="#FFFFFF"/>
<rect width="1280" height="320" fill="url(#vc-wash-light)"/>
</g>
<rect x="0.75" y="0.75" width="1278.5" height="318.5" rx="15.25" stroke="#2E3B44" stroke-opacity="0.22" stroke-width="1.5" fill="none"/>
<g transform="translate(112.133 47.672) scale(0.176)">
<path d="M868.683 243.771C873.636 246.628 876.688 251.912 876.688 257.63V744.929C876.688 750.647 873.636 755.93 868.683 758.788L446.339 1002.45C441.391 1005.3 435.296 1005.3 430.348 1002.45L8.00445 758.788C3.05153 755.93 0 750.647 0 744.929V276.378C0 264.056 13.343 256.359 24.0097 262.527L190.647 358.89C198.282 363.305 200.858 373.047 196.924 380.94C178.464 417.976 168.594 459.119 168.594 501.279C168.594 572.821 197.014 641.434 247.602 692.021C298.189 742.609 366.802 771.029 438.344 771.029C509.886 771.029 578.498 742.609 629.086 692.021C679.674 641.434 708.094 572.821 708.094 501.279C708.094 429.737 679.674 361.125 629.086 310.537C582.371 263.822 520.287 236.012 454.718 232.027C445.907 231.491 438.75 224.381 438.75 215.554V23.435C438.75 11.1205 452.079 3.42217 462.746 9.57602L868.683 243.771Z" fill="url(#vc-mark-light)"/>
</g>
<g transform="translate(31.465 238.924) scale(0.042)" fill="#07101A">
<path d="M1366.98 758.92C1363.62 758.92 1360.62 756.818 1359.46 753.66L1180.91 263.842C1179.01 258.623 1182.88 253.102 1188.43 253.102H1305.39C1308.8 253.102 1311.84 255.271 1312.95 258.501L1432.67 606.681C1435.15 613.888 1445.34 613.876 1447.8 606.663L1566.59 258.519C1567.7 255.279 1570.74 253.102 1574.16 253.102H1688.15C1693.7 253.102 1697.57 258.623 1695.66 263.842L1517.12 753.66C1515.96 756.818 1512.96 758.92 1509.6 758.92H1366.98Z"/>
<path d="M1763.91 758.92C1759.49 758.92 1755.91 755.338 1755.91 750.92V261.102C1755.91 256.684 1759.49 253.102 1763.91 253.102H1873.13C1877.55 253.102 1881.13 256.684 1881.13 261.102V750.92C1881.13 755.338 1877.55 758.92 1873.13 758.92H1763.91ZM1818.03 187.04C1777.6 187.04 1748.02 157.46 1748.02 118.02C1748.02 78.58 1777.6 49 1818.03 49C1857.47 49 1888.04 78.58 1888.04 118.02C1888.04 157.46 1857.47 187.04 1818.03 187.04Z"/>
<path d="M2269 764.836C2201.91 764.836 2153.3 739.429 2121.13 702.222C2116.46 696.826 2107.13 698.971 2105.88 705.993L2097.63 752.323C2096.95 756.14 2093.63 758.92 2089.75 758.92H1995.01C1990.59 758.92 1987.01 755.338 1987.01 750.92V76.72C1987.01 72.3017 1990.59 68.72 1995.01 68.72H2104.23C2108.65 68.72 2112.23 72.3017 2112.23 76.72V298.558C2112.23 306.201 2122.28 309.773 2127.6 304.285C2159.95 270.932 2205.97 247.186 2269.99 247.186C2406.06 247.186 2505.64 343.814 2505.64 505.518C2505.64 661.306 2406.06 764.836 2269 764.836ZM2244.35 661.306C2325.2 661.306 2378.45 599.188 2378.45 506.504C2378.45 412.834 2325.2 350.716 2244.35 350.716C2163.5 350.716 2110.26 412.834 2110.26 505.518C2110.26 599.188 2163.5 661.306 2244.35 661.306Z"/>
<path d="M2832.33 764.836C2667.67 764.836 2567.1 662.292 2567.1 507.49C2567.1 350.716 2669.64 247.186 2822.47 247.186C2971.36 247.186 3072.92 341.842 3072.92 492.7C3072.92 503.334 3072.92 514.647 3072.35 526.639C3072.16 530.846 3068.66 534.112 3064.45 534.112H2704.15C2700.88 534.112 2698.24 536.761 2698.24 540.028C2698.24 617.922 2750.49 667.222 2826.42 667.222C2885.04 667.222 2927.35 641.829 2942.02 596.261C2943.14 592.793 2946.29 590.314 2949.94 590.314H3058.48C3063.44 590.314 3067.22 594.795 3066.14 599.64C3045.5 691.905 2959.22 764.836 2832.33 764.836ZM2701.87 439.185C2700.84 443.964 2704.6 448.33 2709.49 448.33H2937.6C2942.43 448.33 2946.17 444.061 2945.29 439.314C2933.7 376.993 2889.41 342.828 2824.44 342.828C2764.31 342.828 2714.92 378.645 2701.87 439.185Z"/>
<path d="M3389.61 764.836C3230.87 764.836 3134.24 665.25 3134.24 506.504C3134.24 349.73 3235.8 247.186 3393.56 247.186C3524.1 247.186 3607.93 316.338 3630.47 429.168C3631.44 434.016 3627.67 438.47 3622.73 438.47H3507.48C3503.71 438.47 3500.48 435.836 3499.52 432.199C3486.16 381.668 3448.43 350.716 3391.59 350.716C3312.71 350.716 3262.42 414.806 3262.42 506.504C3262.42 598.202 3311.72 661.306 3391.59 661.306C3449.41 661.306 3487.19 629.409 3500.53 577.881C3501.48 574.229 3504.71 571.58 3508.49 571.58H3622.82C3627.73 571.58 3631.49 575.983 3630.56 580.809C3608.73 694.688 3520.22 764.836 3389.61 764.836Z"/>
<path d="M3927.45 764.836C3793.36 764.836 3689.83 666.236 3689.83 506.504C3689.83 350.716 3793.36 247.186 3927.45 247.186C3994.76 247.186 4042.7 271.986 4075.38 309.905C4080.03 315.295 4089.31 313.151 4090.56 306.146L4098.83 259.699C4099.51 255.882 4102.83 253.102 4106.71 253.102H4201.45C4205.87 253.102 4209.45 256.684 4209.45 261.102V750.92C4209.45 755.338 4205.87 758.92 4201.45 758.92H4106.72C4102.84 758.92 4099.51 756.13 4098.84 752.304L4090.41 704.325C4089.2 697.4 4080.13 695.195 4075.49 700.478C4042.28 738.288 3995.02 764.836 3927.45 764.836ZM3952.1 661.306C4032.96 661.306 4085.21 599.188 4085.21 507.49C4085.21 412.834 4032.96 350.716 3952.1 350.716C3870.27 350.716 3818.01 412.834 3818.01 506.504C3818.01 599.188 3870.27 661.306 3952.1 661.306Z"/>
<path d="M4323.28 758.92C4318.86 758.92 4315.28 755.338 4315.28 750.92V261.102C4315.28 256.684 4318.86 253.102 4323.28 253.102H4417.87C4421.81 253.102 4425.17 255.975 4425.78 259.87L4433.21 307.536C4434.35 314.889 4444.31 316.992 4448.87 311.112C4475.34 276.986 4514.34 253.102 4584.45 253.102H4603.08C4607.49 253.102 4611.08 256.684 4611.08 261.102V359.478C4611.08 363.896 4607.49 367.478 4603.08 367.478H4558.82C4471.06 367.478 4440.5 430.582 4440.5 508.476V750.92C4440.5 755.338 4436.92 758.92 4432.5 758.92H4323.28Z"/>
<path d="M4960.28 764.836C4893.19 764.836 4844.58 739.429 4812.41 702.221C4807.74 696.826 4798.41 698.971 4797.16 705.993L4788.91 752.323C4788.23 756.14 4784.91 758.92 4781.03 758.92H4686.29C4681.87 758.92 4678.29 755.338 4678.29 750.92V76.72C4678.29 72.3017 4681.87 68.72 4686.29 68.72H4795.51C4799.93 68.72 4803.51 72.3017 4803.51 76.72V298.558C4803.51 306.201 4813.56 309.773 4818.88 304.285C4851.22 270.932 4897.25 247.186 4961.27 247.186C5097.34 247.186 5196.92 343.814 5196.92 505.518C5196.92 661.306 5097.34 764.836 4960.28 764.836ZM4935.63 661.306C5016.48 661.306 5069.73 599.188 5069.73 506.504C5069.73 412.834 5016.48 350.716 4935.63 350.716C4854.78 350.716 4801.54 412.834 4801.54 505.518C4801.54 599.188 4854.78 661.306 4935.63 661.306Z"/>
<path d="M5521.64 764.836C5363.88 764.836 5258.38 661.306 5258.38 506.504C5258.38 350.716 5363.88 247.186 5521.64 247.186C5679.4 247.186 5784.9 350.716 5784.9 506.504C5784.9 661.306 5679.4 764.836 5521.64 764.836ZM5521.64 661.306C5604.46 661.306 5656.72 597.216 5656.72 506.504C5656.72 414.806 5604.46 350.716 5521.64 350.716C5438.81 350.716 5386.56 414.806 5386.56 506.504C5386.56 597.216 5438.81 661.306 5521.64 661.306Z"/>
<path d="M5876.42 758.92C5872 758.92 5868.42 755.338 5868.42 750.92V261.102C5868.42 256.684 5872 253.102 5876.42 253.102H5971.19C5975.05 253.102 5978.37 255.867 5979.06 259.671L5986.55 300.893C5987.78 307.645 5996.5 309.909 6001.22 304.93C6032.56 271.903 6077.75 247.186 6148.44 247.186C6258.87 247.186 6351.56 306.346 6351.56 477.91V750.92C6351.56 755.338 6347.98 758.92 6343.56 758.92H6234.34C6229.92 758.92 6226.34 755.338 6226.34 750.92V487.77C6226.34 398.044 6188.87 351.702 6115.9 351.702C6036.04 351.702 5993.64 401.988 5993.64 492.7V750.92C5993.64 755.338 5990.06 758.92 5985.64 758.92H5876.42Z"/>
</g>
<path d="M346 48.98V271.02" stroke="#2E3B44" stroke-opacity="0.22" stroke-width="1.5"/>
<path fill="#07101A" d="M418.9 120H396.41V114.27L402.64 111.67V76.93L396.41 74.32V68.59H418.9V74.32L412.68 76.93V111.67L418.9 114.27ZM438.55 120.72Q431.88 120.72 427.72 115.59Q423.56 110.46 423.56 100.46Q423.56 90.38 427.77 85.23Q431.99 80.08 438.83 80.08Q441.68 80.08 443.77 80.84Q445.86 81.59 447.4 82.91Q448.95 84.22 450.03 85.84H450.4Q450.22 84.62 450.04 82.37Q449.86 80.13 449.86 78.34V65.28H459.9V120H452.19L450.25 114.89H449.86Q448.81 116.51 447.26 117.82Q445.71 119.14 443.57 119.93Q441.43 120.72 438.55 120.72ZM441.83 112.68Q446.56 112.68 448.5 109.96Q450.43 107.24 450.46 101.68V100.56Q450.46 94.61 448.6 91.42Q446.74 88.22 441.73 88.22Q437.93 88.22 435.84 91.46Q433.75 94.69 433.75 100.63Q433.75 106.58 435.84 109.63Q437.93 112.68 441.83 112.68ZM485.9 80.08Q491.3 80.08 495.18 82.17Q499.06 84.26 501.15 88.24Q503.24 92.21 503.24 97.9V102.85H477.74Q477.88 107.7 480.59 110.42Q483.29 113.15 488.27 113.15Q491.98 113.15 494.95 112.44Q497.92 111.74 501.08 110.3V117.99Q498.17 119.39 495.02 120.05Q491.87 120.72 487.3 120.72Q481.55 120.72 477.09 118.54Q472.62 116.36 470.09 111.88Q467.55 107.4 467.55 100.67Q467.55 93.91 469.85 89.34Q472.16 84.76 476.29 82.42Q480.43 80.08 485.9 80.08ZM486.11 87.33Q482.61 87.33 480.48 89.55Q478.35 91.78 477.96 96.03H493.73Q493.73 93.47 492.88 91.54Q492.03 89.61 490.35 88.47Q488.68 87.33 486.11 87.33ZM527.76 80.12Q535.06 80.12 538.88 83.54Q542.69 86.95 542.69 93.79V120H535.66L533.72 114.63H533.43Q531.78 116.72 530.01 118.09Q528.25 119.46 525.96 120.09Q523.68 120.72 520.4 120.72Q516.94 120.72 514.19 119.41Q511.44 118.09 509.85 115.4Q508.27 112.7 508.27 108.56Q508.27 102.48 512.75 99.36Q517.23 96.25 526.17 95.93L532.75 95.71V94.26Q532.75 90.51 531.06 89.01Q529.36 87.51 526.33 87.51Q523.63 87.51 520.82 88.38Q518.01 89.24 515.35 90.46L512.41 83.57Q515.39 81.99 519.29 81.05Q523.19 80.12 527.76 80.12ZM528.31 101.85Q522.82 102.07 520.66 103.67Q518.49 105.28 518.49 108.2Q518.49 110.84 520.02 112.08Q521.56 113.33 524.01 113.33Q527.73 113.33 530.24 111.18Q532.75 109.03 532.75 104.95V101.67ZM670.45 80.08Q677.33 80.08 681.38 85.21Q685.43 90.34 685.43 100.31Q685.43 106.97 683.49 111.54Q681.54 116.11 678.12 118.42Q674.7 120.72 670.2 120.72Q667.32 120.72 665.19 119.96Q663.06 119.21 661.6 118.05Q660.15 116.9 659.14 115.6H658.7Q658.85 116.9 658.99 118.63Q659.14 120.36 659.14 122.08V137.28H649.13V80.8H657.27L658.67 85.95H659.14Q660.22 84.33 661.73 83Q663.24 81.67 665.39 80.87Q667.53 80.08 670.45 80.08ZM667.3 88.12Q664.34 88.12 662.57 89.35Q660.8 90.57 660 92.99Q659.21 95.41 659.14 99.12V100.28Q659.14 104.24 659.88 106.99Q660.62 109.73 662.44 111.15Q664.27 112.58 667.41 112.58Q670.04 112.58 671.78 111.11Q673.51 109.65 674.36 106.89Q675.21 104.13 675.21 100.2Q675.21 94.26 673.24 91.19Q671.27 88.12 667.3 88.12ZM714.11 80.08Q715.23 80.08 716.47 80.21Q717.71 80.33 718.47 80.51L717.47 89.87Q716.64 89.69 715.56 89.55Q714.48 89.41 713.04 89.41Q711.27 89.41 709.52 90Q707.77 90.6 706.32 91.85Q704.86 93.09 703.99 95.08Q703.13 97.06 703.13 99.91V120H693.12V80.8H700.8L702.23 87.5H702.7Q703.85 85.45 705.58 83.76Q707.31 82.06 709.49 81.07Q711.66 80.08 714.11 80.08ZM757.9 100.31Q757.9 105.21 756.59 109Q755.27 112.8 752.81 115.41Q750.34 118.02 746.83 119.37Q743.33 120.72 738.94 120.72Q734.87 120.72 731.43 119.37Q728 118.02 725.5 115.41Q723 112.8 721.59 109Q720.19 105.21 720.19 100.31Q720.19 93.8 722.48 89.3Q724.76 84.8 729.01 82.44Q733.25 80.08 739.15 80.08Q744.66 80.08 748.87 82.44Q753.08 84.8 755.49 89.3Q757.9 93.8 757.9 100.31ZM730.41 100.31Q730.41 104.28 731.3 107.14Q732.18 110.01 734.12 111.51Q736.05 113 739.08 113Q742.11 113 744.01 111.51Q745.91 110.01 746.79 107.14Q747.68 104.28 747.68 100.31Q747.68 96.31 746.77 93.53Q745.87 90.76 743.97 89.29Q742.08 87.83 739.01 87.83Q734.49 87.83 732.45 91.08Q730.41 94.33 730.41 100.31ZM778.59 120.72Q771.93 120.72 767.77 115.59Q763.61 110.46 763.61 100.46Q763.61 90.38 767.82 85.23Q772.03 80.08 778.88 80.08Q781.72 80.08 783.81 80.84Q785.9 81.59 787.45 82.91Q789 84.22 790.08 85.84H790.44Q790.26 84.62 790.08 82.37Q789.9 80.13 789.9 78.34V65.28H799.95V120H792.23L790.3 114.89H789.9Q788.86 116.51 787.31 117.82Q785.76 119.14 783.62 119.93Q781.47 120.72 778.59 120.72ZM781.88 112.68Q786.61 112.68 788.54 109.96Q790.47 107.24 790.51 101.68V100.56Q790.51 94.61 788.65 91.42Q786.79 88.22 781.77 88.22Q777.98 88.22 775.89 91.46Q773.79 94.69 773.79 100.63Q773.79 106.58 775.89 109.63Q777.98 112.68 781.88 112.68ZM845.01 80.8V120H837.26L835.93 114.96H835.39Q834.17 116.98 832.24 118.25Q830.32 119.53 828.03 120.13Q825.74 120.72 823.26 120.72Q819.01 120.72 815.86 119.23Q812.71 117.73 811 114.57Q809.29 111.4 809.29 106.39V80.8H819.33V104.11Q819.33 108.36 820.94 110.52Q822.55 112.68 826.01 112.68Q829.48 112.68 831.45 111.17Q833.41 109.66 834.21 106.72Q835 103.79 835 99.57V80.8ZM871.42 120.72Q865.84 120.72 861.61 118.6Q857.38 116.47 855.03 112.01Q852.67 107.55 852.67 100.6Q852.67 93.4 855.22 88.88Q857.78 84.37 862.17 82.22Q866.56 80.08 872.17 80.08Q875.48 80.08 878.48 80.78Q881.48 81.48 883.75 82.63L880.77 90.31Q878.68 89.45 876.47 88.84Q874.25 88.23 872.1 88.23Q869.1 88.23 867.04 89.6Q864.99 90.97 863.94 93.69Q862.89 96.42 862.89 100.53Q862.89 104.57 863.96 107.23Q865.02 109.9 867.04 111.22Q869.06 112.54 871.95 112.54Q875.01 112.54 877.71 111.75Q880.4 110.96 882.74 109.67V117.92Q880.55 119.21 877.83 119.97Q875.12 120.72 871.42 120.72ZM906.1 112.79Q907.84 112.79 909.47 112.45Q911.09 112.11 912.61 111.65V119.04Q911.02 119.72 908.6 120.22Q906.17 120.72 903.39 120.72Q899.96 120.72 897.22 119.59Q894.49 118.46 892.88 115.66Q891.27 112.86 891.27 107.89V88.29H886.09V84.04L891.92 80.64L894.91 72.38H901.17V80.82H912.21V88.29H901.17V107.86Q901.17 110.34 902.54 111.57Q903.91 112.79 906.1 112.79ZM928.96 80.8V120H918.95V80.8ZM924.01 65.55Q926.19 65.55 927.85 66.64Q929.5 67.74 929.5 70.61Q929.5 73.38 927.85 74.51Q926.19 75.64 924.01 75.64Q921.71 75.64 920.11 74.51Q918.52 73.38 918.52 70.61Q918.52 67.74 920.11 66.64Q921.71 65.55 924.01 65.55ZM974.33 100.31Q974.33 105.21 973.02 109Q971.7 112.8 969.24 115.41Q966.77 118.02 963.27 119.37Q959.76 120.72 955.37 120.72Q951.3 120.72 947.87 119.37Q944.43 118.02 941.93 115.41Q939.43 112.8 938.03 109Q936.62 105.21 936.62 100.31Q936.62 93.8 938.91 89.3Q941.19 84.8 945.44 82.44Q949.68 80.08 955.58 80.08Q961.09 80.08 965.3 82.44Q969.51 84.8 971.92 89.3Q974.33 93.8 974.33 100.31ZM946.85 100.31Q946.85 104.28 947.73 107.14Q948.62 110.01 950.55 111.51Q952.48 113 955.51 113Q958.54 113 960.44 111.51Q962.34 110.01 963.22 107.14Q964.11 104.28 964.11 100.31Q964.11 96.31 963.2 93.53Q962.3 90.76 960.41 89.29Q958.51 87.83 955.44 87.83Q950.93 87.83 948.89 91.08Q946.85 94.33 946.85 100.31ZM1003.7 80.08Q1010.25 80.08 1013.96 83.48Q1017.67 86.88 1017.67 94.48V120H1007.69V96.77Q1007.69 92.44 1006.06 90.28Q1004.43 88.12 1000.94 88.12Q995.78 88.12 993.89 91.51Q991.99 94.9 991.99 101.27V120H981.98V80.8H989.69L991.1 86.06H991.53Q992.83 84.11 994.66 82.78Q996.5 81.45 998.78 80.77Q1001.07 80.08 1003.7 80.08ZM1075.71 105.84Q1075.71 110.39 1073.48 113.74Q1071.24 117.09 1067.05 118.9Q1062.85 120.72 1056.88 120.72Q1054.18 120.72 1051.61 120.37Q1049.04 120.03 1046.73 119.37Q1044.42 118.71 1042.42 117.75V108.34Q1045.89 109.84 1049.8 111.1Q1053.71 112.36 1057.64 112.36Q1060.52 112.36 1062.32 111.58Q1064.12 110.81 1064.98 109.46Q1065.84 108.12 1065.84 106.36Q1065.84 104.3 1064.55 102.87Q1063.27 101.43 1060.96 100.19Q1058.66 98.95 1055.44 97.53Q1053.35 96.59 1051.19 95.36Q1049.03 94.14 1047.17 92.37Q1045.31 90.59 1044.16 88.12Q1043.01 85.64 1043.01 82.2Q1043.01 77.69 1045.12 74.48Q1047.24 71.27 1051.13 69.57Q1055.01 67.87 1060.24 67.87Q1064.31 67.87 1067.93 68.78Q1071.55 69.69 1075.3 71.34L1072.06 79.28Q1068.69 77.89 1065.82 77.1Q1062.96 76.31 1059.92 76.31Q1057.68 76.31 1056.1 77.01Q1054.52 77.71 1053.71 78.96Q1052.89 80.22 1052.89 81.92Q1052.89 83.87 1053.97 85.22Q1055.05 86.57 1057.26 87.76Q1059.48 88.96 1062.89 90.54Q1066.96 92.37 1069.8 94.37Q1072.64 96.36 1074.18 99.08Q1075.71 101.81 1075.71 105.84ZM1099.86 80.12Q1107.17 80.12 1110.98 83.54Q1114.79 86.95 1114.79 93.79V120H1107.76L1105.82 114.63H1105.53Q1103.88 116.72 1102.11 118.09Q1100.35 119.46 1098.06 120.09Q1095.78 120.72 1092.5 120.72Q1089.05 120.72 1086.29 119.41Q1083.54 118.09 1081.95 115.4Q1080.37 112.7 1080.37 108.56Q1080.37 102.48 1084.85 99.36Q1089.33 96.25 1098.27 95.93L1104.86 95.71V94.26Q1104.86 90.51 1103.16 89.01Q1101.46 87.51 1098.43 87.51Q1095.73 87.51 1092.92 88.38Q1090.11 89.24 1087.45 90.46L1084.51 83.57Q1087.49 81.99 1091.4 81.05Q1095.3 80.12 1099.86 80.12ZM1100.41 101.85Q1094.92 102.07 1092.76 103.67Q1090.59 105.28 1090.59 108.2Q1090.59 110.84 1092.13 112.08Q1093.66 113.33 1096.12 113.33Q1099.84 113.33 1102.35 111.18Q1104.85 109.03 1104.85 104.95V101.67ZM1141.19 80.12Q1148.49 80.12 1152.31 83.54Q1156.12 86.95 1156.12 93.79V120H1149.09L1147.15 114.63H1146.86Q1145.21 116.72 1143.44 118.09Q1141.68 119.46 1139.39 120.09Q1137.11 120.72 1133.83 120.72Q1130.37 120.72 1127.62 119.41Q1124.87 118.09 1123.28 115.4Q1121.7 112.7 1121.7 108.56Q1121.7 102.48 1126.18 99.36Q1130.66 96.25 1139.6 95.93L1146.18 95.71V94.26Q1146.18 90.51 1144.49 89.01Q1142.79 87.51 1139.76 87.51Q1137.06 87.51 1134.25 88.38Q1131.44 89.24 1128.78 90.46L1125.84 83.57Q1128.82 81.99 1132.72 81.05Q1136.62 80.12 1141.19 80.12ZM1141.74 101.85Q1136.25 102.07 1134.09 103.67Q1131.92 105.28 1131.92 108.2Q1131.92 110.84 1133.45 112.08Q1134.99 113.33 1137.44 113.33Q1141.16 113.33 1143.67 111.18Q1146.18 109.03 1146.18 104.95V101.67ZM1196.74 105.84Q1196.74 110.39 1194.51 113.74Q1192.28 117.09 1188.08 118.9Q1183.88 120.72 1177.91 120.72Q1175.21 120.72 1172.64 120.37Q1170.07 120.03 1167.76 119.37Q1165.46 118.71 1163.45 117.75V108.34Q1166.92 109.84 1170.83 111.1Q1174.74 112.36 1178.67 112.36Q1181.55 112.36 1183.35 111.58Q1185.16 110.81 1186.01 109.46Q1186.87 108.12 1186.87 106.36Q1186.87 104.3 1185.59 102.87Q1184.3 101.43 1182 100.19Q1179.69 98.95 1176.47 97.53Q1174.38 96.59 1172.22 95.36Q1170.06 94.14 1168.2 92.37Q1166.34 90.59 1165.19 88.12Q1164.04 85.64 1164.04 82.2Q1164.04 77.69 1166.16 74.48Q1168.27 71.27 1172.16 69.57Q1176.04 67.87 1181.27 67.87Q1185.35 67.87 1188.96 68.78Q1192.58 69.69 1196.33 71.34L1193.09 79.28Q1189.73 77.89 1186.86 77.1Q1183.99 76.31 1180.95 76.31Q1178.71 76.31 1177.13 77.01Q1175.56 77.71 1174.74 78.96Q1173.92 80.22 1173.92 81.92Q1173.92 83.87 1175 85.22Q1176.08 86.57 1178.3 87.76Q1180.51 88.96 1183.93 90.54Q1188 92.37 1190.84 94.37Q1193.68 96.36 1195.21 99.08Q1196.74 101.81 1196.74 105.84Z"/>
<path d="M569.936 100.416H621.686 M608.186 86.916L621.686 100.416L608.186 113.916" stroke="#0D9488" stroke-width="9.21" stroke-linecap="butt" stroke-linejoin="miter"/>
<path fill="#46555F" d="M396.33 161V143.86H398.49V159.08H405.98V161ZM413.49 147.92Q415.84 147.92 416.97 148.95Q418.1 149.98 418.1 152.24V161H416.56L416.15 159.18H416.06Q415.5 159.87 414.92 160.34Q414.33 160.81 413.57 161.02Q412.82 161.24 411.74 161.24Q410.58 161.24 409.66 160.83Q408.74 160.42 408.21 159.57Q407.68 158.72 407.68 157.42Q407.68 155.5 409.19 154.46Q410.7 153.42 413.85 153.32L416.03 153.25V152.48Q416.03 150.87 415.34 150.25Q414.64 149.62 413.37 149.62Q412.36 149.62 411.45 149.92Q410.54 150.22 409.74 150.61L409.1 149.02Q409.94 148.57 411.09 148.24Q412.24 147.92 413.49 147.92ZM414.11 154.78Q411.71 154.88 410.79 155.55Q409.86 156.22 409.86 157.45Q409.86 158.53 410.52 159.03Q411.18 159.54 412.22 159.54Q413.85 159.54 414.93 158.64Q416.01 157.74 416.01 155.86V154.71ZM432.83 148.14V161H431.1L430.79 159.3H430.7Q430.29 159.97 429.64 160.4Q428.99 160.83 428.22 161.04Q427.46 161.24 426.62 161.24Q425.08 161.24 424.04 160.75Q422.99 160.26 422.46 159.22Q421.94 158.19 421.94 156.56V148.14H424.07V156.42Q424.07 157.95 424.77 158.72Q425.46 159.49 426.93 159.49Q428.37 159.49 429.2 158.95Q430.02 158.41 430.37 157.36Q430.72 156.32 430.72 154.83V148.14ZM443.1 147.9Q445.41 147.9 446.58 149.01Q447.76 150.13 447.76 152.62V161H445.67V152.77Q445.67 151.21 444.98 150.44Q444.28 149.67 442.79 149.67Q440.66 149.67 439.84 150.87Q439.02 152.07 439.02 154.33V161H436.91V148.14H438.62L438.93 149.89H439.05Q439.48 149.22 440.12 148.77Q440.75 148.33 441.52 148.11Q442.29 147.9 443.1 147.9ZM456.9 161.24Q455.2 161.24 453.87 160.54Q452.54 159.85 451.78 158.38Q451.02 156.92 451.02 154.64Q451.02 152.26 451.82 150.78Q452.61 149.29 453.96 148.59Q455.32 147.9 457.05 147.9Q458.03 147.9 458.94 148.1Q459.86 148.3 460.43 148.59L459.78 150.34Q459.21 150.13 458.44 149.94Q457.67 149.74 457 149.74Q455.7 149.74 454.86 150.3Q454.02 150.85 453.62 151.93Q453.21 153.01 453.21 154.62Q453.21 156.15 453.62 157.23Q454.02 158.31 454.84 158.86Q455.66 159.42 456.88 159.42Q457.94 159.42 458.74 159.2Q459.54 158.98 460.22 158.67V160.54Q459.57 160.88 458.79 161.06Q458.01 161.24 456.9 161.24ZM465.38 148.11Q465.38 148.57 465.34 149.05Q465.3 149.53 465.26 149.91H465.4Q465.81 149.24 466.43 148.81Q467.06 148.38 467.82 148.15Q468.59 147.92 469.41 147.92Q470.97 147.92 472.01 148.41Q473.06 148.9 473.58 149.94Q474.11 150.97 474.11 152.62V161H472.02V152.77Q472.02 151.21 471.33 150.44Q470.63 149.67 469.14 149.67Q467.7 149.67 466.89 150.21Q466.07 150.75 465.72 151.8Q465.38 152.84 465.38 154.35V161H463.26V142.76H465.38ZM486.45 148.14V161H484.34V148.14ZM485.42 143.31Q485.9 143.31 486.27 143.64Q486.64 143.96 486.64 144.66Q486.64 145.33 486.27 145.66Q485.9 146 485.42 146Q484.89 146 484.53 145.66Q484.17 145.33 484.17 144.66Q484.17 143.96 484.53 143.64Q484.89 143.31 485.42 143.31ZM496.72 147.9Q499.02 147.9 500.2 149.01Q501.38 150.13 501.38 152.62V161H499.29V152.77Q499.29 151.21 498.59 150.44Q497.9 149.67 496.41 149.67Q494.27 149.67 493.46 150.87Q492.64 152.07 492.64 154.33V161H490.53V148.14H492.23L492.54 149.89H492.66Q493.1 149.22 493.73 148.77Q494.37 148.33 495.14 148.11Q495.9 147.9 496.72 147.9ZM525.71 147.9Q527.9 147.9 528.98 149.01Q530.06 150.13 530.06 152.62V161H527.97V152.72Q527.97 151.21 527.33 150.44Q526.7 149.67 525.35 149.67Q523.48 149.67 522.68 150.75Q521.87 151.83 521.87 153.9V161H519.78V152.72Q519.78 151.71 519.5 151.03Q519.21 150.34 518.63 150.01Q518.06 149.67 517.14 149.67Q515.85 149.67 515.1 150.21Q514.36 150.75 514.04 151.78Q513.71 152.82 513.71 154.33V161H511.6V148.14H513.3L513.62 149.89H513.74Q514.14 149.22 514.73 148.77Q515.32 148.33 516.04 148.11Q516.76 147.9 517.53 147.9Q519.02 147.9 520.01 148.42Q521.01 148.95 521.46 150.06H521.58Q522.23 148.95 523.35 148.42Q524.46 147.9 525.71 147.9ZM536.15 148.14V161H534.04V148.14ZM535.12 143.31Q535.6 143.31 535.97 143.64Q536.34 143.96 536.34 144.66Q536.34 145.33 535.97 145.66Q535.6 146 535.12 146Q534.59 146 534.23 145.66Q533.87 145.33 533.87 144.66Q533.87 143.96 534.23 143.64Q534.59 143.31 535.12 143.31ZM546.42 147.9Q548.73 147.9 549.9 149.01Q551.08 150.13 551.08 152.62V161H548.99V152.77Q548.99 151.21 548.3 150.44Q547.6 149.67 546.11 149.67Q543.98 149.67 543.16 150.87Q542.34 152.07 542.34 154.33V161H540.23V148.14H541.94L542.25 149.89H542.37Q542.8 149.22 543.44 148.77Q544.07 148.33 544.84 148.11Q545.61 147.9 546.42 147.9ZM565.82 148.14V161H564.09L563.78 159.3H563.68Q563.27 159.97 562.62 160.4Q561.98 160.83 561.21 161.04Q560.44 161.24 559.6 161.24Q558.06 161.24 557.02 160.75Q555.98 160.26 555.45 159.22Q554.92 158.19 554.92 156.56V148.14H557.06V156.42Q557.06 157.95 557.75 158.72Q558.45 159.49 559.91 159.49Q561.35 159.49 562.18 158.95Q563.01 158.41 563.36 157.36Q563.7 156.32 563.7 154.83V148.14ZM574.19 159.51Q574.67 159.51 575.18 159.43Q575.68 159.34 575.99 159.25V160.86Q575.66 161.02 575.03 161.13Q574.41 161.24 573.83 161.24Q572.82 161.24 571.97 160.89Q571.12 160.54 570.59 159.68Q570.06 158.82 570.06 157.26V149.77H568.24V148.76L570.09 147.92L570.93 145.18H572.18V148.14H575.9V149.77H572.18V157.21Q572.18 158.38 572.74 158.95Q573.3 159.51 574.19 159.51ZM583.53 147.9Q585.18 147.9 586.37 148.62Q587.56 149.34 588.2 150.64Q588.83 151.95 588.83 153.7V154.98H580.02Q580.07 157.16 581.14 158.3Q582.21 159.44 584.13 159.44Q585.35 159.44 586.3 159.21Q587.25 158.98 588.26 158.55V160.4Q587.27 160.83 586.31 161.04Q585.35 161.24 584.03 161.24Q582.21 161.24 580.8 160.5Q579.4 159.75 578.62 158.28Q577.84 156.8 577.84 154.66Q577.84 152.55 578.55 151.04Q579.26 149.53 580.54 148.71Q581.82 147.9 583.53 147.9ZM583.5 149.62Q581.99 149.62 581.12 150.6Q580.24 151.57 580.07 153.3H586.62Q586.62 152.19 586.29 151.38Q585.95 150.56 585.27 150.09Q584.58 149.62 583.5 149.62ZM600.47 157.45Q600.47 158.7 599.85 159.54Q599.22 160.38 598.07 160.81Q596.92 161.24 595.34 161.24Q593.99 161.24 593.02 161.02Q592.05 160.81 591.3 160.42V158.5Q592.07 158.89 593.16 159.21Q594.26 159.54 595.38 159.54Q596.99 159.54 597.71 159.02Q598.43 158.5 598.43 157.64Q598.43 157.16 598.17 156.78Q597.9 156.39 597.22 156.01Q596.54 155.62 595.26 155.14Q594.02 154.66 593.13 154.18Q592.24 153.7 591.76 153.03Q591.28 152.36 591.28 151.3Q591.28 149.67 592.61 148.78Q593.94 147.9 596.1 147.9Q597.28 147.9 598.3 148.12Q599.32 148.35 600.21 148.76L599.49 150.44Q598.67 150.1 597.78 149.86Q596.9 149.62 595.96 149.62Q594.66 149.62 593.98 150.04Q593.3 150.46 593.3 151.18Q593.3 151.71 593.61 152.08Q593.92 152.46 594.65 152.8Q595.38 153.15 596.61 153.63Q597.83 154.09 598.7 154.57Q599.56 155.05 600.02 155.73Q600.47 156.42 600.47 157.45ZM618.14 153.73Q617.99 153.22 617.85 152.73Q617.7 152.24 617.6 151.8Q617.49 151.35 617.39 150.97Q617.3 150.58 617.25 150.32H617.15Q617.1 150.58 617.02 150.97Q616.94 151.35 616.83 151.81Q616.72 152.26 616.59 152.76Q616.46 153.25 616.29 153.75L613.98 160.98H611.58L608.06 148.11H610.24L612.02 154.98Q612.21 155.67 612.38 156.38Q612.54 157.09 612.68 157.72Q612.81 158.36 612.86 158.82H612.95Q613.02 158.53 613.12 158.1Q613.22 157.66 613.32 157.18Q613.43 156.7 613.56 156.22Q613.7 155.74 613.82 155.36L616.1 148.11H618.4L620.61 155.36Q620.78 155.91 620.96 156.54Q621.14 157.16 621.28 157.75Q621.42 158.34 621.47 158.79H621.57Q621.62 158.38 621.75 157.77Q621.88 157.16 622.06 156.43Q622.24 155.7 622.43 154.98L624.23 148.11H626.39L622.82 160.98H620.34ZM630.81 148.14V161H628.7V148.14ZM629.78 143.31Q630.26 143.31 630.63 143.64Q631 143.96 631 144.66Q631 145.33 630.63 145.66Q630.26 146 629.78 146Q629.25 146 628.89 145.66Q628.53 145.33 628.53 144.66Q628.53 143.96 628.89 143.64Q629.25 143.31 629.78 143.31ZM639.18 159.51Q639.66 159.51 640.17 159.43Q640.67 159.34 640.98 159.25V160.86Q640.65 161.02 640.02 161.13Q639.4 161.24 638.82 161.24Q637.82 161.24 636.96 160.89Q636.11 160.54 635.58 159.68Q635.06 158.82 635.06 157.26V149.77H633.23V148.76L635.08 147.92L635.92 145.18H637.17V148.14H640.89V149.77H637.17V157.21Q637.17 158.38 637.73 158.95Q638.3 159.51 639.18 159.51ZM645.66 148.11Q645.66 148.57 645.63 149.05Q645.59 149.53 645.54 149.91H645.69Q646.1 149.24 646.72 148.81Q647.34 148.38 648.11 148.15Q648.88 147.92 649.7 147.92Q651.26 147.92 652.3 148.41Q653.34 148.9 653.87 149.94Q654.4 150.97 654.4 152.62V161H652.31V152.77Q652.31 151.21 651.62 150.44Q650.92 149.67 649.43 149.67Q647.99 149.67 647.18 150.21Q646.36 150.75 646.01 151.8Q645.66 152.84 645.66 154.35V161H643.55V142.76H645.66ZM669.5 147.92Q671.85 147.92 672.98 148.95Q674.1 149.98 674.1 152.24V161H672.57L672.16 159.18H672.06Q671.51 159.87 670.92 160.34Q670.34 160.81 669.58 161.02Q668.82 161.24 667.74 161.24Q666.59 161.24 665.67 160.83Q664.74 160.42 664.22 159.57Q663.69 158.72 663.69 157.42Q663.69 155.5 665.2 154.46Q666.71 153.42 669.86 153.32L672.04 153.25V152.48Q672.04 150.87 671.34 150.25Q670.65 149.62 669.38 149.62Q668.37 149.62 667.46 149.92Q666.54 150.22 665.75 150.61L665.1 149.02Q665.94 148.57 667.1 148.24Q668.25 147.92 669.5 147.92ZM670.12 154.78Q667.72 154.88 666.8 155.55Q665.87 156.22 665.87 157.45Q665.87 158.53 666.53 159.03Q667.19 159.54 668.22 159.54Q669.86 159.54 670.94 158.64Q672.02 157.74 672.02 155.86V154.71ZM688.84 148.14V161H687.11L686.8 159.3H686.7Q686.3 159.97 685.65 160.4Q685 160.83 684.23 161.04Q683.46 161.24 682.62 161.24Q681.09 161.24 680.04 160.75Q679 160.26 678.47 159.22Q677.94 158.19 677.94 156.56V148.14H680.08V156.42Q680.08 157.95 680.78 158.72Q681.47 159.49 682.94 159.49Q684.38 159.49 685.2 158.95Q686.03 158.41 686.38 157.36Q686.73 156.32 686.73 154.83V148.14ZM697.22 159.51Q697.7 159.51 698.2 159.43Q698.7 159.34 699.02 159.25V160.86Q698.68 161.02 698.06 161.13Q697.43 161.24 696.86 161.24Q695.85 161.24 695 160.89Q694.14 160.54 693.62 159.68Q693.09 158.82 693.09 157.26V149.77H691.26V148.76L693.11 147.92L693.95 145.18H695.2V148.14H698.92V149.77H695.2V157.21Q695.2 158.38 695.76 158.95Q696.33 159.51 697.22 159.51ZM703.7 148.11Q703.7 148.57 703.66 149.05Q703.62 149.53 703.58 149.91H703.72Q704.13 149.24 704.75 148.81Q705.38 148.38 706.14 148.15Q706.91 147.92 707.73 147.92Q709.29 147.92 710.33 148.41Q711.38 148.9 711.9 149.94Q712.43 150.97 712.43 152.62V161H710.34V152.77Q710.34 151.21 709.65 150.44Q708.95 149.67 707.46 149.67Q706.02 149.67 705.21 150.21Q704.39 150.75 704.04 151.8Q703.7 152.84 703.7 154.35V161H701.58V142.76H703.7ZM718.98 158.48Q718.77 159.32 718.43 160.3Q718.1 161.29 717.7 162.26Q717.3 163.23 716.92 164.1H715.36Q715.6 163.18 715.83 162.14Q716.06 161.1 716.25 160.08Q716.44 159.06 716.56 158.22H718.82ZM731.2 147.2Q731.2 148.02 731.16 148.72Q731.13 149.43 731.08 149.84H731.2Q731.75 149.02 732.71 148.47Q733.67 147.92 735.18 147.92Q737.58 147.92 739.04 149.59Q740.49 151.26 740.49 154.57Q740.49 156.78 739.83 158.26Q739.17 159.75 737.97 160.5Q736.77 161.24 735.18 161.24Q733.67 161.24 732.71 160.69Q731.75 160.14 731.2 159.37H731.03L730.6 161H729.09V142.76H731.2ZM734.82 149.67Q733.46 149.67 732.66 150.19Q731.87 150.7 731.54 151.77Q731.2 152.84 731.2 154.5V154.59Q731.2 156.97 731.98 158.23Q732.76 159.49 734.87 159.49Q736.6 159.49 737.45 158.22Q738.3 156.94 738.3 154.54Q738.3 152.12 737.45 150.9Q736.6 149.67 734.82 149.67ZM745.96 148.14V161H743.85V148.14ZM744.93 143.31Q745.41 143.31 745.78 143.64Q746.15 143.96 746.15 144.66Q746.15 145.33 745.78 145.66Q745.41 146 744.93 146Q744.4 146 744.04 145.66Q743.68 145.33 743.68 144.66Q743.68 143.96 744.04 143.64Q744.4 143.31 744.93 143.31ZM752.15 161H750.04V142.76H752.15ZM758.34 161H756.23V142.76H758.34ZM764.54 148.14V161H762.42V148.14ZM763.5 143.31Q763.98 143.31 764.36 143.64Q764.73 143.96 764.73 144.66Q764.73 145.33 764.36 145.66Q763.98 146 763.5 146Q762.98 146 762.62 145.66Q762.26 145.33 762.26 144.66Q762.26 143.96 762.62 143.64Q762.98 143.31 763.5 143.31ZM774.81 147.9Q777.11 147.9 778.29 149.01Q779.46 150.13 779.46 152.62V161H777.38V152.77Q777.38 151.21 776.68 150.44Q775.98 149.67 774.5 149.67Q772.36 149.67 771.54 150.87Q770.73 152.07 770.73 154.33V161H768.62V148.14H770.32L770.63 149.89H770.75Q771.18 149.22 771.82 148.77Q772.46 148.33 773.22 148.11Q773.99 147.9 774.81 147.9ZM788.01 147.9Q789.28 147.9 790.3 148.38Q791.32 148.86 792.04 149.84H792.16L792.45 148.14H794.13V161.22Q794.13 163.04 793.5 164.28Q792.88 165.51 791.61 166.14Q790.34 166.76 788.37 166.76Q786.98 166.76 785.81 166.56Q784.65 166.35 783.74 165.94V164Q784.65 164.48 785.87 164.74Q787.1 165.01 788.49 165.01Q790.14 165.01 791.09 164.04Q792.04 163.06 792.04 161.38V160.88Q792.04 160.59 792.06 160.05Q792.09 159.51 792.11 159.3H792.02Q791.34 160.28 790.35 160.76Q789.35 161.24 788.03 161.24Q785.54 161.24 784.13 159.49Q782.73 157.74 782.73 154.59Q782.73 151.52 784.13 149.71Q785.54 147.9 788.01 147.9ZM788.3 149.67Q787.22 149.67 786.46 150.25Q785.7 150.82 785.31 151.93Q784.91 153.03 784.91 154.62Q784.91 156.99 785.79 158.25Q786.66 159.51 788.34 159.51Q789.33 159.51 790.02 159.26Q790.72 159.01 791.18 158.47Q791.63 157.93 791.85 157.09Q792.06 156.25 792.06 155.1V154.59Q792.06 152.84 791.67 151.76Q791.27 150.68 790.43 150.18Q789.59 149.67 788.3 149.67ZM800.78 158.48Q800.56 159.32 800.22 160.3Q799.89 161.29 799.49 162.26Q799.1 163.23 798.71 164.1H797.15Q797.39 163.18 797.62 162.14Q797.85 161.1 798.04 160.08Q798.23 159.06 798.35 158.22H800.61ZM815.85 147.9Q817.5 147.9 818.69 148.62Q819.88 149.34 820.52 150.64Q821.15 151.95 821.15 153.7V154.98H812.34Q812.39 157.16 813.46 158.3Q814.53 159.44 816.45 159.44Q817.67 159.44 818.62 159.21Q819.57 158.98 820.58 158.55V160.4Q819.59 160.83 818.63 161.04Q817.67 161.24 816.35 161.24Q814.53 161.24 813.12 160.5Q811.72 159.75 810.94 158.28Q810.16 156.8 810.16 154.66Q810.16 152.55 810.87 151.04Q811.58 149.53 812.86 148.71Q814.14 147.9 815.85 147.9ZM815.82 149.62Q814.31 149.62 813.44 150.6Q812.56 151.57 812.39 153.3H818.94Q818.94 152.19 818.61 151.38Q818.27 150.56 817.59 150.09Q816.9 149.62 815.82 149.62ZM838.53 147.9Q840.71 147.9 841.79 149.01Q842.87 150.13 842.87 152.62V161H840.78V152.72Q840.78 151.21 840.15 150.44Q839.51 149.67 838.17 149.67Q836.3 149.67 835.49 150.75Q834.69 151.83 834.69 153.9V161H832.6V152.72Q832.6 151.71 832.31 151.03Q832.02 150.34 831.45 150.01Q830.87 149.67 829.96 149.67Q828.66 149.67 827.92 150.21Q827.18 150.75 826.85 151.78Q826.53 152.82 826.53 154.33V161H824.42V148.14H826.12L826.43 149.89H826.55Q826.96 149.22 827.55 148.77Q828.14 148.33 828.86 148.11Q829.58 147.9 830.34 147.9Q831.83 147.9 832.83 148.42Q833.82 148.95 834.28 150.06H834.4Q835.05 148.95 836.16 148.42Q837.28 147.9 838.53 147.9ZM851.73 147.92Q854.08 147.92 855.21 148.95Q856.34 149.98 856.34 152.24V161H854.8L854.39 159.18H854.3Q853.74 159.87 853.16 160.34Q852.57 160.81 851.81 161.02Q851.06 161.24 849.98 161.24Q848.82 161.24 847.9 160.83Q846.98 160.42 846.45 159.57Q845.92 158.72 845.92 157.42Q845.92 155.5 847.43 154.46Q848.94 153.42 852.09 153.32L854.27 153.25V152.48Q854.27 150.87 853.58 150.25Q852.88 149.62 851.61 149.62Q850.6 149.62 849.69 149.92Q848.78 150.22 847.98 150.61L847.34 149.02Q848.18 148.57 849.33 148.24Q850.48 147.92 851.73 147.92ZM852.35 154.78Q849.95 154.88 849.03 155.55Q848.1 156.22 848.1 157.45Q848.1 158.53 848.76 159.03Q849.42 159.54 850.46 159.54Q852.09 159.54 853.17 158.64Q854.25 157.74 854.25 155.86V154.71ZM862.43 148.14V161H860.32V148.14ZM861.4 143.31Q861.88 143.31 862.25 143.64Q862.62 143.96 862.62 144.66Q862.62 145.33 862.25 145.66Q861.88 146 861.4 146Q860.87 146 860.51 145.66Q860.15 145.33 860.15 144.66Q860.15 143.96 860.51 143.64Q860.87 143.31 861.4 143.31ZM868.62 161H866.51V142.76H868.62ZM875.27 158.48Q875.06 159.32 874.72 160.3Q874.38 161.29 873.99 162.26Q873.59 163.23 873.21 164.1H871.65Q871.89 163.18 872.12 162.14Q872.34 161.1 872.54 160.08Q872.73 159.06 872.85 158.22H875.1ZM889.67 159.51Q890.15 159.51 890.66 159.43Q891.16 159.34 891.47 159.25V160.86Q891.14 161.02 890.51 161.13Q889.89 161.24 889.31 161.24Q888.3 161.24 887.45 160.89Q886.6 160.54 886.07 159.68Q885.54 158.82 885.54 157.26V149.77H883.72V148.76L885.57 147.92L886.41 145.18H887.66V148.14H891.38V149.77H887.66V157.21Q887.66 158.38 888.22 158.95Q888.78 159.51 889.67 159.51ZM899.01 147.9Q900.66 147.9 901.85 148.62Q903.04 149.34 903.68 150.64Q904.31 151.95 904.31 153.7V154.98H895.5Q895.55 157.16 896.62 158.3Q897.69 159.44 899.61 159.44Q900.83 159.44 901.78 159.21Q902.73 158.98 903.74 158.55V160.4Q902.75 160.83 901.79 161.04Q900.83 161.24 899.51 161.24Q897.69 161.24 896.28 160.5Q894.88 159.75 894.1 158.28Q893.32 156.8 893.32 154.66Q893.32 152.55 894.03 151.04Q894.74 149.53 896.02 148.71Q897.3 147.9 899.01 147.9ZM898.98 149.62Q897.47 149.62 896.6 150.6Q895.72 151.57 895.55 153.3H902.1Q902.1 152.19 901.77 151.38Q901.43 150.56 900.75 150.09Q900.06 149.62 898.98 149.62ZM921.69 147.9Q923.87 147.9 924.95 149.01Q926.03 150.13 926.03 152.62V161H923.94V152.72Q923.94 151.21 923.31 150.44Q922.67 149.67 921.33 149.67Q919.46 149.67 918.65 150.75Q917.85 151.83 917.85 153.9V161H915.76V152.72Q915.76 151.71 915.47 151.03Q915.18 150.34 914.61 150.01Q914.03 149.67 913.12 149.67Q911.82 149.67 911.08 150.21Q910.34 150.75 910.01 151.78Q909.69 152.82 909.69 154.33V161H907.58V148.14H909.28L909.59 149.89H909.71Q910.12 149.22 910.71 148.77Q911.3 148.33 912.02 148.11Q912.74 147.9 913.5 147.9Q914.99 147.9 915.99 148.42Q916.98 148.95 917.44 150.06H917.56Q918.21 148.95 919.32 148.42Q920.44 147.9 921.69 147.9ZM936.14 147.9Q938.51 147.9 939.96 149.55Q941.42 151.21 941.42 154.54Q941.42 156.73 940.76 158.23Q940.1 159.73 938.91 160.48Q937.72 161.24 936.11 161.24Q935.13 161.24 934.36 160.98Q933.59 160.71 933.05 160.29Q932.51 159.87 932.13 159.37H931.98Q932.03 159.78 932.08 160.4Q932.13 161.02 932.13 161.48V166.76H930.02V148.14H931.74L932.03 149.89H932.13Q932.51 149.34 933.05 148.88Q933.59 148.42 934.35 148.16Q935.1 147.9 936.14 147.9ZM935.75 149.67Q934.46 149.67 933.66 150.16Q932.87 150.66 932.51 151.64Q932.15 152.62 932.13 154.14V154.54Q932.13 156.13 932.46 157.23Q932.8 158.34 933.6 158.91Q934.41 159.49 935.8 159.49Q936.98 159.49 937.73 158.84Q938.49 158.19 938.86 157.08Q939.23 155.96 939.23 154.52Q939.23 152.31 938.38 150.99Q937.53 149.67 935.75 149.67ZM946.89 161H944.78V142.76H946.89ZM955.84 147.92Q958.19 147.92 959.32 148.95Q960.45 149.98 960.45 152.24V161H958.91L958.5 159.18H958.41Q957.86 159.87 957.27 160.34Q956.68 160.81 955.92 161.02Q955.17 161.24 954.09 161.24Q952.94 161.24 952.01 160.83Q951.09 160.42 950.56 159.57Q950.03 158.72 950.03 157.42Q950.03 155.5 951.54 154.46Q953.06 153.42 956.2 153.32L958.38 153.25V152.48Q958.38 150.87 957.69 150.25Q956.99 149.62 955.72 149.62Q954.71 149.62 953.8 149.92Q952.89 150.22 952.1 150.61L951.45 149.02Q952.29 148.57 953.44 148.24Q954.59 147.92 955.84 147.92ZM956.46 154.78Q954.06 154.88 953.14 155.55Q952.22 156.22 952.22 157.45Q952.22 158.53 952.88 159.03Q953.54 159.54 954.57 159.54Q956.2 159.54 957.28 158.64Q958.36 157.74 958.36 155.86V154.71ZM968.73 159.51Q969.21 159.51 969.71 159.43Q970.22 159.34 970.53 159.25V160.86Q970.19 161.02 969.57 161.13Q968.94 161.24 968.37 161.24Q967.36 161.24 966.51 160.89Q965.66 160.54 965.13 159.68Q964.6 158.82 964.6 157.26V149.77H962.78V148.76L964.62 147.92L965.46 145.18H966.71V148.14H970.43V149.77H966.71V157.21Q966.71 158.38 967.28 158.95Q967.84 159.51 968.73 159.51ZM978.06 147.9Q979.72 147.9 980.91 148.62Q982.1 149.34 982.73 150.64Q983.37 151.95 983.37 153.7V154.98H974.56Q974.61 157.16 975.68 158.3Q976.74 159.44 978.66 159.44Q979.89 159.44 980.84 159.21Q981.78 158.98 982.79 158.55V160.4Q981.81 160.83 980.85 161.04Q979.89 161.24 978.57 161.24Q976.74 161.24 975.34 160.5Q973.94 159.75 973.16 158.28Q972.38 156.8 972.38 154.66Q972.38 152.55 973.08 151.04Q973.79 149.53 975.08 148.71Q976.36 147.9 978.06 147.9ZM978.04 149.62Q976.53 149.62 975.65 150.6Q974.78 151.57 974.61 153.3H981.16Q981.16 152.19 980.82 151.38Q980.49 150.56 979.8 150.09Q979.12 149.62 978.04 149.62ZM995.01 157.45Q995.01 158.7 994.38 159.54Q993.76 160.38 992.61 160.81Q991.46 161.24 989.87 161.24Q988.53 161.24 987.56 161.02Q986.58 160.81 985.84 160.42V158.5Q986.61 158.89 987.7 159.21Q988.79 159.54 989.92 159.54Q991.53 159.54 992.25 159.02Q992.97 158.5 992.97 157.64Q992.97 157.16 992.7 156.78Q992.44 156.39 991.76 156.01Q991.07 155.62 989.8 155.14Q988.55 154.66 987.66 154.18Q986.78 153.7 986.3 153.03Q985.82 152.36 985.82 151.3Q985.82 149.67 987.15 148.78Q988.48 147.9 990.64 147.9Q991.82 147.9 992.84 148.12Q993.86 148.35 994.74 148.76L994.02 150.44Q993.21 150.1 992.32 149.86Q991.43 149.62 990.5 149.62Q989.2 149.62 988.52 150.04Q987.83 150.46 987.83 151.18Q987.83 151.71 988.14 152.08Q988.46 152.46 989.19 152.8Q989.92 153.15 991.14 153.63Q992.37 154.09 993.23 154.57Q994.1 155.05 994.55 155.73Q995.01 156.42 995.01 157.45ZM1000.7 158.48Q1000.48 159.32 1000.14 160.3Q999.81 161.29 999.41 162.26Q999.02 163.23 998.63 164.1H997.07Q997.31 163.18 997.54 162.14Q997.77 161.1 997.96 160.08Q998.15 159.06 998.27 158.22H1000.53ZM1015.67 147.92Q1018.02 147.92 1019.15 148.95Q1020.28 149.98 1020.28 152.24V161H1018.74L1018.34 159.18H1018.24Q1017.69 159.87 1017.1 160.34Q1016.51 160.81 1015.76 161.02Q1015 161.24 1013.92 161.24Q1012.77 161.24 1011.84 160.83Q1010.92 160.42 1010.39 159.57Q1009.86 158.72 1009.86 157.42Q1009.86 155.5 1011.38 154.46Q1012.89 153.42 1016.03 153.32L1018.22 153.25V152.48Q1018.22 150.87 1017.52 150.25Q1016.82 149.62 1015.55 149.62Q1014.54 149.62 1013.63 149.92Q1012.72 150.22 1011.93 150.61L1011.28 149.02Q1012.12 148.57 1013.27 148.24Q1014.42 147.92 1015.67 147.92ZM1016.3 154.78Q1013.9 154.88 1012.97 155.55Q1012.05 156.22 1012.05 157.45Q1012.05 158.53 1012.71 159.03Q1013.37 159.54 1014.4 159.54Q1016.03 159.54 1017.11 158.64Q1018.19 157.74 1018.19 155.86V154.71ZM1030.46 147.9Q1032.76 147.9 1033.94 149.01Q1035.11 150.13 1035.11 152.62V161H1033.02V152.77Q1033.02 151.21 1032.33 150.44Q1031.63 149.67 1030.14 149.67Q1028.01 149.67 1027.19 150.87Q1026.38 152.07 1026.38 154.33V161H1024.26V148.14H1025.97L1026.28 149.89H1026.4Q1026.83 149.22 1027.47 148.77Q1028.1 148.33 1028.87 148.11Q1029.64 147.9 1030.46 147.9ZM1043.66 161.24Q1041.26 161.24 1039.82 159.57Q1038.38 157.9 1038.38 154.59Q1038.38 151.28 1039.83 149.59Q1041.28 147.9 1043.68 147.9Q1044.69 147.9 1045.43 148.15Q1046.18 148.4 1046.73 148.83Q1047.28 149.26 1047.66 149.79H1047.81Q1047.78 149.48 1047.72 148.87Q1047.66 148.26 1047.66 147.9V142.76H1049.78V161H1048.07L1047.76 159.27H1047.66Q1047.28 159.82 1046.73 160.27Q1046.18 160.71 1045.42 160.98Q1044.66 161.24 1043.66 161.24ZM1043.99 159.49Q1046.03 159.49 1046.86 158.37Q1047.69 157.26 1047.69 155V154.62Q1047.69 152.22 1046.9 150.93Q1046.1 149.65 1043.97 149.65Q1042.26 149.65 1041.41 151Q1040.56 152.36 1040.56 154.64Q1040.56 156.94 1041.41 158.22Q1042.26 159.49 1043.99 159.49ZM1074.21 147.9Q1076.39 147.9 1077.47 149.01Q1078.55 150.13 1078.55 152.62V161H1076.46V152.72Q1076.46 151.21 1075.83 150.44Q1075.19 149.67 1073.85 149.67Q1071.98 149.67 1071.17 150.75Q1070.37 151.83 1070.37 153.9V161H1068.28V152.72Q1068.28 151.71 1067.99 151.03Q1067.7 150.34 1067.13 150.01Q1066.55 149.67 1065.64 149.67Q1064.34 149.67 1063.6 150.21Q1062.86 150.75 1062.53 151.78Q1062.21 152.82 1062.21 154.33V161H1060.1V148.14H1061.8L1062.11 149.89H1062.23Q1062.64 149.22 1063.23 148.77Q1063.82 148.33 1064.54 148.11Q1065.26 147.9 1066.02 147.9Q1067.51 147.9 1068.51 148.42Q1069.5 148.95 1069.96 150.06H1070.08Q1070.73 148.95 1071.84 148.42Q1072.96 147.9 1074.21 147.9ZM1093.72 154.54Q1093.72 156.15 1093.3 157.39Q1092.88 158.62 1092.1 159.49Q1091.32 160.35 1090.2 160.8Q1089.09 161.24 1087.72 161.24Q1086.45 161.24 1085.37 160.8Q1084.29 160.35 1083.5 159.49Q1082.7 158.62 1082.26 157.39Q1081.82 156.15 1081.82 154.54Q1081.82 152.41 1082.54 150.93Q1083.26 149.46 1084.6 148.68Q1085.94 147.9 1087.79 147.9Q1089.54 147.9 1090.88 148.68Q1092.21 149.46 1092.96 150.93Q1093.72 152.41 1093.72 154.54ZM1084 154.54Q1084 156.06 1084.4 157.17Q1084.79 158.29 1085.63 158.89Q1086.47 159.49 1087.77 159.49Q1089.06 159.49 1089.9 158.89Q1090.74 158.29 1091.14 157.17Q1091.54 156.06 1091.54 154.54Q1091.54 153.01 1091.13 151.93Q1090.72 150.85 1089.89 150.26Q1089.06 149.67 1087.74 149.67Q1085.78 149.67 1084.89 150.97Q1084 152.26 1084 154.54ZM1103.06 147.9Q1103.42 147.9 1103.84 147.93Q1104.26 147.97 1104.57 148.04L1104.3 149.98Q1103.99 149.91 1103.62 149.86Q1103.25 149.82 1102.91 149.82Q1102.17 149.82 1101.5 150.13Q1100.82 150.44 1100.3 151Q1099.77 151.57 1099.47 152.36Q1099.17 153.15 1099.17 154.14V161H1097.06V148.14H1098.78L1099.02 150.49H1099.12Q1099.53 149.77 1100.1 149.18Q1100.68 148.59 1101.42 148.24Q1102.17 147.9 1103.06 147.9ZM1111.46 147.9Q1113.11 147.9 1114.3 148.62Q1115.49 149.34 1116.12 150.64Q1116.76 151.95 1116.76 153.7V154.98H1107.95Q1108 157.16 1109.07 158.3Q1110.14 159.44 1112.06 159.44Q1113.28 159.44 1114.23 159.21Q1115.18 158.98 1116.18 158.55V160.4Q1115.2 160.83 1114.24 161.04Q1113.28 161.24 1111.96 161.24Q1110.14 161.24 1108.73 160.5Q1107.33 159.75 1106.55 158.28Q1105.77 156.8 1105.77 154.66Q1105.77 152.55 1106.48 151.04Q1107.18 149.53 1108.47 148.71Q1109.75 147.9 1111.46 147.9ZM1111.43 149.62Q1109.92 149.62 1109.04 150.6Q1108.17 151.57 1108 153.3H1114.55Q1114.55 152.19 1114.22 151.38Q1113.88 150.56 1113.2 150.09Q1112.51 149.62 1111.43 149.62ZM1119.71 159.7Q1119.71 158.82 1120.14 158.46Q1120.58 158.1 1121.18 158.1Q1121.8 158.1 1122.24 158.46Q1122.69 158.82 1122.69 159.7Q1122.69 160.57 1122.24 160.95Q1121.8 161.34 1121.18 161.34Q1120.58 161.34 1120.14 160.95Q1119.71 160.57 1119.71 159.7ZM410.06 187.26Q410.06 190.14 408.99 192.09Q407.92 194.03 405.93 195.02Q403.94 196 401.1 196H396.33V178.86H401.61Q404.2 178.86 406.1 179.82Q407.99 180.78 409.02 182.64Q410.06 184.5 410.06 187.26ZM407.78 187.34Q407.78 185.06 407.02 183.59Q406.26 182.13 404.81 181.42Q403.36 180.71 401.3 180.71H398.49V194.15H400.82Q404.3 194.15 406.04 192.44Q407.78 190.72 407.78 187.34ZM418.53 182.9Q420.18 182.9 421.37 183.62Q422.56 184.34 423.2 185.64Q423.83 186.95 423.83 188.7V189.98H415.02Q415.07 192.16 416.14 193.3Q417.21 194.44 419.13 194.44Q420.35 194.44 421.3 194.21Q422.25 193.98 423.26 193.55V195.4Q422.27 195.83 421.31 196.04Q420.35 196.24 419.03 196.24Q417.21 196.24 415.8 195.5Q414.4 194.75 413.62 193.28Q412.84 191.8 412.84 189.66Q412.84 187.55 413.55 186.04Q414.26 184.53 415.54 183.71Q416.82 182.9 418.53 182.9ZM418.5 184.62Q416.99 184.62 416.12 185.6Q415.24 186.57 415.07 188.3H421.62Q421.62 187.19 421.29 186.38Q420.95 185.56 420.27 185.09Q419.58 184.62 418.5 184.62ZM433.22 182.9Q435.59 182.9 437.04 184.55Q438.5 186.21 438.5 189.54Q438.5 191.73 437.84 193.23Q437.18 194.73 435.99 195.48Q434.8 196.24 433.19 196.24Q432.21 196.24 431.44 195.98Q430.67 195.71 430.13 195.29Q429.59 194.87 429.21 194.37H429.06Q429.11 194.78 429.16 195.4Q429.21 196.02 429.21 196.48V201.76H427.1V183.14H428.82L429.11 184.89H429.21Q429.59 184.34 430.13 183.88Q430.67 183.42 431.43 183.16Q432.18 182.9 433.22 182.9ZM432.83 184.67Q431.54 184.67 430.74 185.16Q429.95 185.66 429.59 186.64Q429.23 187.62 429.21 189.14V189.54Q429.21 191.13 429.54 192.23Q429.88 193.34 430.68 193.91Q431.49 194.49 432.88 194.49Q434.06 194.49 434.81 193.84Q435.57 193.19 435.94 192.08Q436.31 190.96 436.31 189.52Q436.31 187.31 435.46 185.99Q434.61 184.67 432.83 184.67ZM443.97 196H441.86V177.76H443.97ZM459.23 189.54Q459.23 191.15 458.81 192.39Q458.39 193.62 457.61 194.49Q456.83 195.35 455.72 195.8Q454.6 196.24 453.23 196.24Q451.96 196.24 450.88 195.8Q449.8 195.35 449.01 194.49Q448.22 193.62 447.77 192.39Q447.33 191.15 447.33 189.54Q447.33 187.41 448.05 185.93Q448.77 184.46 450.11 183.68Q451.46 182.9 453.3 182.9Q455.06 182.9 456.39 183.68Q457.72 184.46 458.48 185.93Q459.23 187.41 459.23 189.54ZM449.51 189.54Q449.51 191.06 449.91 192.17Q450.3 193.29 451.14 193.89Q451.98 194.49 453.28 194.49Q454.58 194.49 455.42 193.89Q456.26 193.29 456.65 192.17Q457.05 191.06 457.05 189.54Q457.05 188.01 456.64 186.93Q456.23 185.85 455.4 185.26Q454.58 184.67 453.26 184.67Q451.29 184.67 450.4 185.97Q449.51 187.26 449.51 189.54ZM460.07 183.14H462.33L465.11 190.46Q465.35 191.1 465.56 191.7Q465.76 192.3 465.93 192.87Q466.1 193.43 466.19 193.96H466.29Q466.43 193.36 466.74 192.39Q467.06 191.42 467.39 190.43L470.01 183.14H472.29L466.74 197.78Q466.29 198.98 465.68 199.88Q465.06 200.78 464.19 201.27Q463.31 201.76 462.06 201.76Q461.49 201.76 461.06 201.7Q460.62 201.64 460.31 201.57V199.89Q460.58 199.94 460.95 199.98Q461.32 200.03 461.73 200.03Q462.47 200.03 463.01 199.76Q463.55 199.48 463.94 198.96Q464.32 198.45 464.58 197.75L465.26 196.05ZM475.94 193.48Q475.72 194.32 475.38 195.3Q475.05 196.29 474.65 197.26Q474.26 198.23 473.87 199.1H472.31Q472.55 198.18 472.78 197.14Q473.01 196.1 473.2 195.08Q473.39 194.06 473.51 193.22H475.77ZM494.42 192.45Q494.42 193.7 493.79 194.54Q493.17 195.38 492.02 195.81Q490.86 196.24 489.28 196.24Q487.94 196.24 486.96 196.02Q485.99 195.81 485.25 195.42V193.5Q486.02 193.89 487.11 194.21Q488.2 194.54 489.33 194.54Q490.94 194.54 491.66 194.02Q492.38 193.5 492.38 192.64Q492.38 192.16 492.11 191.78Q491.85 191.39 491.16 191.01Q490.48 190.62 489.21 190.14Q487.96 189.66 487.07 189.18Q486.18 188.7 485.7 188.03Q485.22 187.36 485.22 186.3Q485.22 184.67 486.56 183.78Q487.89 182.9 490.05 182.9Q491.22 182.9 492.24 183.12Q493.26 183.35 494.15 183.76L493.43 185.44Q492.62 185.1 491.73 184.86Q490.84 184.62 489.9 184.62Q488.61 184.62 487.92 185.04Q487.24 185.46 487.24 186.18Q487.24 186.71 487.55 187.08Q487.86 187.46 488.6 187.8Q489.33 188.15 490.55 188.63Q491.78 189.09 492.64 189.57Q493.5 190.05 493.96 190.73Q494.42 191.42 494.42 192.45ZM502.7 196.24Q500.99 196.24 499.66 195.54Q498.33 194.85 497.57 193.38Q496.82 191.92 496.82 189.64Q496.82 187.26 497.61 185.78Q498.4 184.29 499.76 183.59Q501.11 182.9 502.84 182.9Q503.82 182.9 504.74 183.1Q505.65 183.3 506.22 183.59L505.58 185.34Q505 185.13 504.23 184.94Q503.46 184.74 502.79 184.74Q501.5 184.74 500.66 185.3Q499.82 185.85 499.41 186.93Q499 188.01 499 189.62Q499 191.15 499.41 192.23Q499.82 193.31 500.63 193.86Q501.45 194.42 502.67 194.42Q503.73 194.42 504.53 194.2Q505.34 193.98 506.01 193.67V195.54Q505.36 195.88 504.58 196.06Q503.8 196.24 502.7 196.24ZM513.93 182.92Q516.28 182.92 517.41 183.95Q518.54 184.98 518.54 187.24V196H517L516.59 194.18H516.5Q515.94 194.87 515.36 195.34Q514.77 195.81 514.01 196.02Q513.26 196.24 512.18 196.24Q511.02 196.24 510.1 195.83Q509.18 195.42 508.65 194.57Q508.12 193.72 508.12 192.42Q508.12 190.5 509.63 189.46Q511.14 188.42 514.29 188.32L516.47 188.25V187.48Q516.47 185.87 515.78 185.25Q515.08 184.62 513.81 184.62Q512.8 184.62 511.89 184.92Q510.98 185.22 510.18 185.61L509.54 184.02Q510.38 183.57 511.53 183.24Q512.68 182.92 513.93 182.92ZM514.55 189.78Q512.15 189.88 511.23 190.55Q510.3 191.22 510.3 192.45Q510.3 193.53 510.96 194.03Q511.62 194.54 512.66 194.54Q514.29 194.54 515.37 193.64Q516.45 192.74 516.45 190.86V189.71ZM524.63 196H522.52V177.76H524.63ZM533.68 182.9Q535.34 182.9 536.52 183.62Q537.71 184.34 538.35 185.64Q538.98 186.95 538.98 188.7V189.98H530.18Q530.22 192.16 531.29 193.3Q532.36 194.44 534.28 194.44Q535.5 194.44 536.45 194.21Q537.4 193.98 538.41 193.55V195.4Q537.42 195.83 536.46 196.04Q535.5 196.24 534.18 196.24Q532.36 196.24 530.96 195.5Q529.55 194.75 528.77 193.28Q527.99 191.8 527.99 189.66Q527.99 187.55 528.7 186.04Q529.41 184.53 530.69 183.71Q531.98 182.9 533.68 182.9ZM533.66 184.62Q532.14 184.62 531.27 185.6Q530.39 186.57 530.22 188.3H536.78Q536.78 187.19 536.44 186.38Q536.1 185.56 535.42 185.09Q534.74 184.62 533.66 184.62ZM544.82 193.48Q544.6 194.32 544.26 195.3Q543.93 196.29 543.53 197.26Q543.14 198.23 542.75 199.1H541.19Q541.43 198.18 541.66 197.14Q541.89 196.1 542.08 195.08Q542.27 194.06 542.39 193.22H544.65ZM557.03 182.2Q557.03 183.02 557 183.72Q556.96 184.43 556.91 184.84H557.03Q557.58 184.02 558.54 183.47Q559.5 182.92 561.02 182.92Q563.42 182.92 564.87 184.59Q566.32 186.26 566.32 189.57Q566.32 191.78 565.66 193.26Q565 194.75 563.8 195.5Q562.6 196.24 561.02 196.24Q559.5 196.24 558.54 195.69Q557.58 195.14 557.03 194.37H556.86L556.43 196H554.92V177.76H557.03ZM560.66 184.67Q559.29 184.67 558.5 185.19Q557.7 185.7 557.37 186.77Q557.03 187.84 557.03 189.5V189.59Q557.03 191.97 557.81 193.23Q558.59 194.49 560.7 194.49Q562.43 194.49 563.28 193.22Q564.14 191.94 564.14 189.54Q564.14 187.12 563.28 185.9Q562.43 184.67 560.66 184.67ZM574.55 182.92Q576.9 182.92 578.03 183.95Q579.16 184.98 579.16 187.24V196H577.62L577.22 194.18H577.12Q576.57 194.87 575.98 195.34Q575.39 195.81 574.64 196.02Q573.88 196.24 572.8 196.24Q571.65 196.24 570.72 195.83Q569.8 195.42 569.27 194.57Q568.74 193.72 568.74 192.42Q568.74 190.5 570.26 189.46Q571.77 188.42 574.91 188.32L577.1 188.25V187.48Q577.1 185.87 576.4 185.25Q575.7 184.62 574.43 184.62Q573.42 184.62 572.51 184.92Q571.6 185.22 570.81 185.61L570.16 184.02Q571 183.57 572.15 183.24Q573.3 182.92 574.55 182.92ZM575.18 189.78Q572.78 189.88 571.85 190.55Q570.93 191.22 570.93 192.45Q570.93 193.53 571.59 194.03Q572.25 194.54 573.28 194.54Q574.91 194.54 575.99 193.64Q577.07 192.74 577.07 190.86V189.71ZM588.3 196.24Q586.6 196.24 585.27 195.54Q583.94 194.85 583.18 193.38Q582.42 191.92 582.42 189.64Q582.42 187.26 583.22 185.78Q584.01 184.29 585.36 183.59Q586.72 182.9 588.45 182.9Q589.43 182.9 590.34 183.1Q591.26 183.3 591.83 183.59L591.18 185.34Q590.61 185.13 589.84 184.94Q589.07 184.74 588.4 184.74Q587.1 184.74 586.26 185.3Q585.42 185.85 585.02 186.93Q584.61 188.01 584.61 189.62Q584.61 191.15 585.02 192.23Q585.42 193.31 586.24 193.86Q587.06 194.42 588.28 194.42Q589.34 194.42 590.14 194.2Q590.94 193.98 591.62 193.67V195.54Q590.97 195.88 590.19 196.06Q589.41 196.24 588.3 196.24ZM596.75 187.29Q596.75 187.67 596.72 188.3Q596.68 188.92 596.66 189.38H596.75Q596.9 189.18 597.18 188.82Q597.47 188.46 597.77 188.09Q598.07 187.72 598.29 187.48L602.39 183.14H604.86L599.66 188.63L605.22 196H602.68L598.22 190L596.75 191.27V196H594.66V177.76H596.75ZM618.23 183.14V196H616.5L616.19 194.3H616.1Q615.69 194.97 615.04 195.4Q614.39 195.83 613.62 196.04Q612.86 196.24 612.02 196.24Q610.48 196.24 609.44 195.75Q608.39 195.26 607.86 194.22Q607.34 193.19 607.34 191.56V183.14H609.47V191.42Q609.47 192.95 610.17 193.72Q610.86 194.49 612.33 194.49Q613.77 194.49 614.6 193.95Q615.42 193.41 615.77 192.36Q616.12 191.32 616.12 189.83V183.14ZM628.43 182.9Q630.81 182.9 632.26 184.55Q633.71 186.21 633.71 189.54Q633.71 191.73 633.05 193.23Q632.39 194.73 631.2 195.48Q630.02 196.24 628.41 196.24Q627.42 196.24 626.66 195.98Q625.89 195.71 625.35 195.29Q624.81 194.87 624.42 194.37H624.28Q624.33 194.78 624.38 195.4Q624.42 196.02 624.42 196.48V201.76H622.31V183.14H624.04L624.33 184.89H624.42Q624.81 184.34 625.35 183.88Q625.89 183.42 626.64 183.16Q627.4 182.9 628.43 182.9ZM628.05 184.67Q626.75 184.67 625.96 185.16Q625.17 185.66 624.81 186.64Q624.45 187.62 624.42 189.14V189.54Q624.42 191.13 624.76 192.23Q625.1 193.34 625.9 193.91Q626.7 194.49 628.1 194.49Q629.27 194.49 630.03 193.84Q630.78 193.19 631.16 192.08Q631.53 190.96 631.53 189.52Q631.53 187.31 630.68 185.99Q629.82 184.67 628.05 184.67ZM639.64 193.48Q639.42 194.32 639.09 195.3Q638.75 196.29 638.36 197.26Q637.96 198.23 637.58 199.1H636.02Q636.26 198.18 636.48 197.14Q636.71 196.1 636.9 195.08Q637.1 194.06 637.22 193.22H639.47ZM655.74 182.9Q656.1 182.9 656.52 182.93Q656.94 182.97 657.26 183.04L656.99 184.98Q656.68 184.91 656.31 184.86Q655.94 184.82 655.6 184.82Q654.86 184.82 654.18 185.13Q653.51 185.44 652.98 186Q652.46 186.57 652.16 187.36Q651.86 188.15 651.86 189.14V196H649.74V183.14H651.47L651.71 185.49H651.81Q652.22 184.77 652.79 184.18Q653.37 183.59 654.11 183.24Q654.86 182.9 655.74 182.9ZM664.14 182.9Q665.8 182.9 666.99 183.62Q668.18 184.34 668.81 185.64Q669.45 186.95 669.45 188.7V189.98H660.64Q660.69 192.16 661.76 193.3Q662.82 194.44 664.74 194.44Q665.97 194.44 666.92 194.21Q667.86 193.98 668.87 193.55V195.4Q667.89 195.83 666.93 196.04Q665.97 196.24 664.65 196.24Q662.82 196.24 661.42 195.5Q660.02 194.75 659.24 193.28Q658.46 191.8 658.46 189.66Q658.46 187.55 659.16 186.04Q659.87 184.53 661.16 183.71Q662.44 182.9 664.14 182.9ZM664.12 184.62Q662.61 184.62 661.73 185.6Q660.86 186.57 660.69 188.3H667.24Q667.24 187.19 666.9 186.38Q666.57 185.56 665.88 185.09Q665.2 184.62 664.12 184.62ZM681.09 192.45Q681.09 193.7 680.46 194.54Q679.84 195.38 678.69 195.81Q677.54 196.24 675.95 196.24Q674.61 196.24 673.64 196.02Q672.66 195.81 671.92 195.42V193.5Q672.69 193.89 673.78 194.21Q674.87 194.54 676 194.54Q677.61 194.54 678.33 194.02Q679.05 193.5 679.05 192.64Q679.05 192.16 678.78 191.78Q678.52 191.39 677.84 191.01Q677.15 190.62 675.88 190.14Q674.63 189.66 673.74 189.18Q672.86 188.7 672.38 188.03Q671.9 187.36 671.9 186.3Q671.9 184.67 673.23 183.78Q674.56 182.9 676.72 182.9Q677.9 182.9 678.92 183.12Q679.94 183.35 680.82 183.76L680.1 185.44Q679.29 185.1 678.4 184.86Q677.51 184.62 676.58 184.62Q675.28 184.62 674.6 185.04Q673.91 185.46 673.91 186.18Q673.91 186.71 674.22 187.08Q674.54 187.46 675.27 187.8Q676 188.15 677.22 188.63Q678.45 189.09 679.31 189.57Q680.18 190.05 680.63 190.73Q681.09 191.42 681.09 192.45ZM688.5 194.51Q688.98 194.51 689.49 194.43Q689.99 194.34 690.3 194.25V195.86Q689.97 196.02 689.34 196.13Q688.72 196.24 688.14 196.24Q687.14 196.24 686.28 195.89Q685.43 195.54 684.9 194.68Q684.38 193.82 684.38 192.26V184.77H682.55V183.76L684.4 182.92L685.24 180.18H686.49V183.14H690.21V184.77H686.49V192.21Q686.49 193.38 687.05 193.95Q687.62 194.51 688.5 194.51ZM704.06 189.54Q704.06 191.15 703.64 192.39Q703.22 193.62 702.44 194.49Q701.66 195.35 700.54 195.8Q699.42 196.24 698.06 196.24Q696.78 196.24 695.7 195.8Q694.62 195.35 693.83 194.49Q693.04 193.62 692.6 192.39Q692.15 191.15 692.15 189.54Q692.15 187.41 692.87 185.93Q693.59 184.46 694.94 183.68Q696.28 182.9 698.13 182.9Q699.88 182.9 701.21 183.68Q702.54 184.46 703.3 185.93Q704.06 187.41 704.06 189.54ZM694.34 189.54Q694.34 191.06 694.73 192.17Q695.13 193.29 695.97 193.89Q696.81 194.49 698.1 194.49Q699.4 194.49 700.24 193.89Q701.08 193.29 701.48 192.17Q701.87 191.06 701.87 189.54Q701.87 188.01 701.46 186.93Q701.06 185.85 700.23 185.26Q699.4 184.67 698.08 184.67Q696.11 184.67 695.22 185.97Q694.34 187.26 694.34 189.54ZM713.39 182.9Q713.75 182.9 714.17 182.93Q714.59 182.97 714.9 183.04L714.64 184.98Q714.33 184.91 713.96 184.86Q713.58 184.82 713.25 184.82Q712.5 184.82 711.83 185.13Q711.16 185.44 710.63 186Q710.1 186.57 709.8 187.36Q709.5 188.15 709.5 189.14V196H707.39V183.14H709.12L709.36 185.49H709.46Q709.86 184.77 710.44 184.18Q711.02 183.59 711.76 183.24Q712.5 182.9 713.39 182.9ZM721.79 182.9Q723.45 182.9 724.64 183.62Q725.82 184.34 726.46 185.64Q727.1 186.95 727.1 188.7V189.98H718.29Q718.34 192.16 719.4 193.3Q720.47 194.44 722.39 194.44Q723.62 194.44 724.56 194.21Q725.51 193.98 726.52 193.55V195.4Q725.54 195.83 724.58 196.04Q723.62 196.24 722.3 196.24Q720.47 196.24 719.07 195.5Q717.66 194.75 716.88 193.28Q716.1 191.8 716.1 189.66Q716.1 187.55 716.81 186.04Q717.52 184.53 718.8 183.71Q720.09 182.9 721.79 182.9ZM721.77 184.62Q720.26 184.62 719.38 185.6Q718.5 186.57 718.34 188.3H724.89Q724.89 187.19 724.55 186.38Q724.22 185.56 723.53 185.09Q722.85 184.62 721.77 184.62ZM732.93 193.48Q732.71 194.32 732.38 195.3Q732.04 196.29 731.64 197.26Q731.25 198.23 730.86 199.1H729.3Q729.54 198.18 729.77 197.14Q730 196.1 730.19 195.08Q730.38 194.06 730.5 193.22H732.76ZM747.9 182.92Q750.26 182.92 751.38 183.95Q752.51 184.98 752.51 187.24V196H750.98L750.57 194.18H750.47Q749.92 194.87 749.33 195.34Q748.74 195.81 747.99 196.02Q747.23 196.24 746.15 196.24Q745 196.24 744.08 195.83Q743.15 195.42 742.62 194.57Q742.1 193.72 742.1 192.42Q742.1 190.5 743.61 189.46Q745.12 188.42 748.26 188.32L750.45 188.25V187.48Q750.45 185.87 749.75 185.25Q749.06 184.62 747.78 184.62Q746.78 184.62 745.86 184.92Q744.95 185.22 744.16 185.61L743.51 184.02Q744.35 183.57 745.5 183.24Q746.66 182.92 747.9 182.92ZM748.53 189.78Q746.13 189.88 745.2 190.55Q744.28 191.22 744.28 192.45Q744.28 193.53 744.94 194.03Q745.6 194.54 746.63 194.54Q748.26 194.54 749.34 193.64Q750.42 192.74 750.42 190.86V189.71ZM762.69 182.9Q764.99 182.9 766.17 184.01Q767.34 185.13 767.34 187.62V196H765.26V187.77Q765.26 186.21 764.56 185.44Q763.86 184.67 762.38 184.67Q760.24 184.67 759.42 185.87Q758.61 187.07 758.61 189.33V196H756.5V183.14H758.2L758.51 184.89H758.63Q759.06 184.22 759.7 183.77Q760.34 183.33 761.1 183.11Q761.87 182.9 762.69 182.9ZM775.89 196.24Q773.49 196.24 772.05 194.57Q770.61 192.9 770.61 189.59Q770.61 186.28 772.06 184.59Q773.51 182.9 775.91 182.9Q776.92 182.9 777.66 183.15Q778.41 183.4 778.96 183.83Q779.51 184.26 779.9 184.79H780.04Q780.02 184.48 779.96 183.87Q779.9 183.26 779.9 182.9V177.76H782.01V196H780.3L779.99 194.27H779.9Q779.51 194.82 778.96 195.27Q778.41 195.71 777.65 195.98Q776.9 196.24 775.89 196.24ZM776.22 194.49Q778.26 194.49 779.09 193.37Q779.92 192.26 779.92 190V189.62Q779.92 187.22 779.13 185.93Q778.34 184.65 776.2 184.65Q774.5 184.65 773.64 186Q772.79 187.36 772.79 189.64Q772.79 191.94 773.64 193.22Q774.5 194.49 776.22 194.49ZM798.26 184.77H795.02V196H792.9V184.77H790.65V183.78L792.9 183.06V182.32Q792.9 180.66 793.4 179.63Q793.89 178.6 794.82 178.12Q795.76 177.64 797.08 177.64Q797.85 177.64 798.48 177.77Q799.12 177.9 799.58 178.07L799.02 179.73Q798.64 179.61 798.14 179.49Q797.63 179.37 797.1 179.37Q796.05 179.37 795.53 180.08Q795.02 180.78 795.02 182.3V183.14H798.26ZM805.46 182.92Q807.81 182.92 808.94 183.95Q810.06 184.98 810.06 187.24V196H808.53L808.12 194.18H808.02Q807.47 194.87 806.88 195.34Q806.3 195.81 805.54 196.02Q804.78 196.24 803.7 196.24Q802.55 196.24 801.63 195.83Q800.7 195.42 800.18 194.57Q799.65 193.72 799.65 192.42Q799.65 190.5 801.16 189.46Q802.67 188.42 805.82 188.32L808 188.25V187.48Q808 185.87 807.3 185.25Q806.61 184.62 805.34 184.62Q804.33 184.62 803.42 184.92Q802.5 185.22 801.71 185.61L801.06 184.02Q801.9 183.57 803.06 183.24Q804.21 182.92 805.46 182.92ZM806.08 189.78Q803.68 189.88 802.76 190.55Q801.83 191.22 801.83 192.45Q801.83 193.53 802.49 194.03Q803.15 194.54 804.18 194.54Q805.82 194.54 806.9 193.64Q807.98 192.74 807.98 190.86V189.71ZM816.16 183.14V196H814.05V183.14ZM815.13 178.31Q815.61 178.31 815.98 178.64Q816.35 178.96 816.35 179.66Q816.35 180.33 815.98 180.66Q815.61 181 815.13 181Q814.6 181 814.24 180.66Q813.88 180.33 813.88 179.66Q813.88 178.96 814.24 178.64Q814.6 178.31 815.13 178.31ZM822.35 196H820.24V177.76H822.35ZM837.62 189.54Q837.62 191.15 837.2 192.39Q836.78 193.62 836 194.49Q835.22 195.35 834.1 195.8Q832.98 196.24 831.62 196.24Q830.34 196.24 829.26 195.8Q828.18 195.35 827.39 194.49Q826.6 193.62 826.16 192.39Q825.71 191.15 825.71 189.54Q825.71 187.41 826.43 185.93Q827.15 184.46 828.5 183.68Q829.84 182.9 831.69 182.9Q833.44 182.9 834.77 183.68Q836.1 184.46 836.86 185.93Q837.62 187.41 837.62 189.54ZM827.9 189.54Q827.9 191.06 828.29 192.17Q828.69 193.29 829.53 193.89Q830.37 194.49 831.66 194.49Q832.96 194.49 833.8 193.89Q834.64 193.29 835.04 192.17Q835.43 191.06 835.43 189.54Q835.43 188.01 835.02 186.93Q834.62 185.85 833.79 185.26Q832.96 184.67 831.64 184.67Q829.67 184.67 828.78 185.97Q827.9 187.26 827.9 189.54ZM843.3 196 838.43 183.14H840.69L843.42 190.72Q843.62 191.25 843.83 191.9Q844.05 192.54 844.22 193.13Q844.38 193.72 844.46 194.13H844.55Q844.65 193.72 844.83 193.12Q845.01 192.52 845.24 191.87Q845.46 191.22 845.63 190.72L848.37 183.14H850.62L845.73 196ZM857.63 182.9Q859.29 182.9 860.48 183.62Q861.66 184.34 862.3 185.64Q862.94 186.95 862.94 188.7V189.98H854.13Q854.18 192.16 855.24 193.3Q856.31 194.44 858.23 194.44Q859.46 194.44 860.4 194.21Q861.35 193.98 862.36 193.55V195.4Q861.38 195.83 860.42 196.04Q859.46 196.24 858.14 196.24Q856.31 196.24 854.91 195.5Q853.5 194.75 852.72 193.28Q851.94 191.8 851.94 189.66Q851.94 187.55 852.65 186.04Q853.36 184.53 854.64 183.71Q855.93 182.9 857.63 182.9ZM857.61 184.62Q856.1 184.62 855.22 185.6Q854.34 186.57 854.18 188.3H860.73Q860.73 187.19 860.39 186.38Q860.06 185.56 859.37 185.09Q858.69 184.62 857.61 184.62ZM872.2 182.9Q872.56 182.9 872.98 182.93Q873.4 182.97 873.71 183.04L873.45 184.98Q873.14 184.91 872.76 184.86Q872.39 184.82 872.06 184.82Q871.31 184.82 870.64 185.13Q869.97 185.44 869.44 186Q868.91 186.57 868.61 187.36Q868.31 188.15 868.31 189.14V196H866.2V183.14H867.93L868.17 185.49H868.26Q868.67 184.77 869.25 184.18Q869.82 183.59 870.57 183.24Q871.31 182.9 872.2 182.9ZM890.66 188.73Q890.51 188.22 890.37 187.73Q890.22 187.24 890.12 186.8Q890.01 186.35 889.91 185.97Q889.82 185.58 889.77 185.32H889.67Q889.62 185.58 889.54 185.97Q889.46 186.35 889.35 186.81Q889.24 187.26 889.11 187.76Q888.98 188.25 888.81 188.75L886.5 195.98H884.1L880.58 183.11H882.76L884.54 189.98Q884.73 190.67 884.9 191.38Q885.06 192.09 885.2 192.72Q885.33 193.36 885.38 193.82H885.47Q885.54 193.53 885.64 193.1Q885.74 192.66 885.84 192.18Q885.95 191.7 886.08 191.22Q886.22 190.74 886.34 190.36L888.62 183.11H890.92L893.13 190.36Q893.3 190.91 893.48 191.54Q893.66 192.16 893.8 192.75Q893.94 193.34 893.99 193.79H894.09Q894.14 193.38 894.27 192.77Q894.4 192.16 894.58 191.43Q894.76 190.7 894.95 189.98L896.75 183.11H898.91L895.34 195.98H892.86ZM903.33 183.14V196H901.22V183.14ZM902.3 178.31Q902.78 178.31 903.15 178.64Q903.52 178.96 903.52 179.66Q903.52 180.33 903.15 180.66Q902.78 181 902.3 181Q901.77 181 901.41 180.66Q901.05 180.33 901.05 179.66Q901.05 178.96 901.41 178.64Q901.77 178.31 902.3 178.31ZM911.7 194.51Q912.18 194.51 912.69 194.43Q913.19 194.34 913.5 194.25V195.86Q913.17 196.02 912.54 196.13Q911.92 196.24 911.34 196.24Q910.34 196.24 909.48 195.89Q908.63 195.54 908.1 194.68Q907.58 193.82 907.58 192.26V184.77H905.75V183.76L907.6 182.92L908.44 180.18H909.69V183.14H913.41V184.77H909.69V192.21Q909.69 193.38 910.25 193.95Q910.82 194.51 911.7 194.51ZM918.18 183.11Q918.18 183.57 918.15 184.05Q918.11 184.53 918.06 184.91H918.21Q918.62 184.24 919.24 183.81Q919.86 183.38 920.63 183.15Q921.4 182.92 922.22 182.92Q923.78 182.92 924.82 183.41Q925.86 183.9 926.39 184.94Q926.92 185.97 926.92 187.62V196H924.83V187.77Q924.83 186.21 924.14 185.44Q923.44 184.67 921.95 184.67Q920.51 184.67 919.7 185.21Q918.88 185.75 918.53 186.8Q918.18 187.84 918.18 189.35V196H916.07V177.76H918.18ZM945.52 192.45Q945.52 193.7 944.9 194.54Q944.27 195.38 943.12 195.81Q941.97 196.24 940.38 196.24Q939.04 196.24 938.07 196.02Q937.1 195.81 936.35 195.42V193.5Q937.12 193.89 938.21 194.21Q939.3 194.54 940.43 194.54Q942.04 194.54 942.76 194.02Q943.48 193.5 943.48 192.64Q943.48 192.16 943.22 191.78Q942.95 191.39 942.27 191.01Q941.58 190.62 940.31 190.14Q939.06 189.66 938.18 189.18Q937.29 188.7 936.81 188.03Q936.33 187.36 936.33 186.3Q936.33 184.67 937.66 183.78Q938.99 182.9 941.15 182.9Q942.33 182.9 943.35 183.12Q944.37 183.35 945.26 183.76L944.54 185.44Q943.72 185.1 942.83 184.86Q941.94 184.62 941.01 184.62Q939.71 184.62 939.03 185.04Q938.34 185.46 938.34 186.18Q938.34 186.71 938.66 187.08Q938.97 187.46 939.7 187.8Q940.43 188.15 941.66 188.63Q942.88 189.09 943.74 189.57Q944.61 190.05 945.06 190.73Q945.52 191.42 945.52 192.45ZM950.75 183.14V196H948.64V183.14ZM949.72 178.31Q950.2 178.31 950.57 178.64Q950.94 178.96 950.94 179.66Q950.94 180.33 950.57 180.66Q950.2 181 949.72 181Q949.19 181 948.83 180.66Q948.47 180.33 948.47 179.66Q948.47 178.96 948.83 178.64Q949.19 178.31 949.72 178.31ZM968.94 182.9Q971.13 182.9 972.21 184.01Q973.29 185.13 973.29 187.62V196H971.2V187.72Q971.2 186.21 970.56 185.44Q969.93 184.67 968.58 184.67Q966.71 184.67 965.91 185.75Q965.1 186.83 965.1 188.9V196H963.02V187.72Q963.02 186.71 962.73 186.03Q962.44 185.34 961.86 185.01Q961.29 184.67 960.38 184.67Q959.08 184.67 958.34 185.21Q957.59 185.75 957.27 186.78Q956.94 187.82 956.94 189.33V196H954.83V183.14H956.54L956.85 184.89H956.97Q957.38 184.22 957.96 183.77Q958.55 183.33 959.27 183.11Q959.99 182.9 960.76 182.9Q962.25 182.9 963.24 183.42Q964.24 183.95 964.7 185.06H964.82Q965.46 183.95 966.58 183.42Q967.7 182.9 968.94 182.9ZM983.39 182.9Q985.77 182.9 987.22 184.55Q988.67 186.21 988.67 189.54Q988.67 191.73 988.01 193.23Q987.35 194.73 986.16 195.48Q984.98 196.24 983.37 196.24Q982.38 196.24 981.62 195.98Q980.85 195.71 980.31 195.29Q979.77 194.87 979.38 194.37H979.24Q979.29 194.78 979.34 195.4Q979.38 196.02 979.38 196.48V201.76H977.27V183.14H979L979.29 184.89H979.38Q979.77 184.34 980.31 183.88Q980.85 183.42 981.6 183.16Q982.36 182.9 983.39 182.9ZM983.01 184.67Q981.71 184.67 980.92 185.16Q980.13 185.66 979.77 186.64Q979.41 187.62 979.38 189.14V189.54Q979.38 191.13 979.72 192.23Q980.06 193.34 980.86 193.91Q981.66 194.49 983.06 194.49Q984.23 194.49 984.99 193.84Q985.74 193.19 986.12 192.08Q986.49 190.96 986.49 189.52Q986.49 187.31 985.64 185.99Q984.78 184.67 983.01 184.67ZM994.14 196H992.03V177.76H994.14ZM1003.19 182.9Q1004.85 182.9 1006.04 183.62Q1007.22 184.34 1007.86 185.64Q1008.5 186.95 1008.5 188.7V189.98H999.69Q999.74 192.16 1000.8 193.3Q1001.87 194.44 1003.79 194.44Q1005.02 194.44 1005.96 194.21Q1006.91 193.98 1007.92 193.55V195.4Q1006.94 195.83 1005.98 196.04Q1005.02 196.24 1003.7 196.24Q1001.87 196.24 1000.47 195.5Q999.06 194.75 998.28 193.28Q997.5 191.8 997.5 189.66Q997.5 187.55 998.21 186.04Q998.92 184.53 1000.2 183.71Q1001.49 182.9 1003.19 182.9ZM1003.17 184.62Q1001.66 184.62 1000.78 185.6Q999.9 186.57 999.74 188.3H1006.29Q1006.29 187.19 1005.95 186.38Q1005.62 185.56 1004.93 185.09Q1004.25 184.62 1003.17 184.62ZM1023.16 196.24Q1021.46 196.24 1020.12 195.54Q1018.79 194.85 1018.04 193.38Q1017.28 191.92 1017.28 189.64Q1017.28 187.26 1018.07 185.78Q1018.86 184.29 1020.22 183.59Q1021.58 182.9 1023.3 182.9Q1024.29 182.9 1025.2 183.1Q1026.11 183.3 1026.69 183.59L1026.04 185.34Q1025.46 185.13 1024.7 184.94Q1023.93 184.74 1023.26 184.74Q1021.96 184.74 1021.12 185.3Q1020.28 185.85 1019.87 186.93Q1019.46 188.01 1019.46 189.62Q1019.46 191.15 1019.87 192.23Q1020.28 193.31 1021.1 193.86Q1021.91 194.42 1023.14 194.42Q1024.19 194.42 1025 194.2Q1025.8 193.98 1026.47 193.67V195.54Q1025.82 195.88 1025.04 196.06Q1024.26 196.24 1023.16 196.24ZM1040.7 189.54Q1040.7 191.15 1040.28 192.39Q1039.86 193.62 1039.08 194.49Q1038.3 195.35 1037.19 195.8Q1036.07 196.24 1034.7 196.24Q1033.43 196.24 1032.35 195.8Q1031.27 195.35 1030.48 194.49Q1029.69 193.62 1029.24 192.39Q1028.8 191.15 1028.8 189.54Q1028.8 187.41 1029.52 185.93Q1030.24 184.46 1031.58 183.68Q1032.93 182.9 1034.78 182.9Q1036.53 182.9 1037.86 183.68Q1039.19 184.46 1039.95 185.93Q1040.7 187.41 1040.7 189.54ZM1030.98 189.54Q1030.98 191.06 1031.38 192.17Q1031.78 193.29 1032.62 193.89Q1033.46 194.49 1034.75 194.49Q1036.05 194.49 1036.89 193.89Q1037.73 193.29 1038.12 192.17Q1038.52 191.06 1038.52 189.54Q1038.52 188.01 1038.11 186.93Q1037.7 185.85 1036.88 185.26Q1036.05 184.67 1034.73 184.67Q1032.76 184.67 1031.87 185.97Q1030.98 187.26 1030.98 189.54ZM1058.15 182.9Q1060.34 182.9 1061.42 184.01Q1062.5 185.13 1062.5 187.62V196H1060.41V187.72Q1060.41 186.21 1059.77 185.44Q1059.14 184.67 1057.79 184.67Q1055.92 184.67 1055.12 185.75Q1054.31 186.83 1054.31 188.9V196H1052.22V187.72Q1052.22 186.71 1051.94 186.03Q1051.65 185.34 1051.07 185.01Q1050.5 184.67 1049.58 184.67Q1048.29 184.67 1047.54 185.21Q1046.8 185.75 1046.48 186.78Q1046.15 187.82 1046.15 189.33V196H1044.04V183.14H1045.74L1046.06 184.89H1046.18Q1046.58 184.22 1047.17 183.77Q1047.76 183.33 1048.48 183.11Q1049.2 182.9 1049.97 182.9Q1051.46 182.9 1052.45 183.42Q1053.45 183.95 1053.9 185.06H1054.02Q1054.67 183.95 1055.79 183.42Q1056.9 182.9 1058.15 182.9ZM1080.59 182.9Q1082.78 182.9 1083.86 184.01Q1084.94 185.13 1084.94 187.62V196H1082.85V187.72Q1082.85 186.21 1082.21 185.44Q1081.58 184.67 1080.23 184.67Q1078.36 184.67 1077.56 185.75Q1076.75 186.83 1076.75 188.9V196H1074.66V187.72Q1074.66 186.71 1074.38 186.03Q1074.09 185.34 1073.51 185.01Q1072.94 184.67 1072.02 184.67Q1070.73 184.67 1069.98 185.21Q1069.24 185.75 1068.92 186.78Q1068.59 187.82 1068.59 189.33V196H1066.48V183.14H1068.18L1068.5 184.89H1068.62Q1069.02 184.22 1069.61 183.77Q1070.2 183.33 1070.92 183.11Q1071.64 182.9 1072.41 182.9Q1073.9 182.9 1074.89 183.42Q1075.89 183.95 1076.34 185.06H1076.46Q1077.11 183.95 1078.23 183.42Q1079.34 182.9 1080.59 182.9ZM1093.79 182.92Q1096.14 182.92 1097.27 183.95Q1098.4 184.98 1098.4 187.24V196H1096.86L1096.46 194.18H1096.36Q1095.81 194.87 1095.22 195.34Q1094.63 195.81 1093.88 196.02Q1093.12 196.24 1092.04 196.24Q1090.89 196.24 1089.96 195.83Q1089.04 195.42 1088.51 194.57Q1087.98 193.72 1087.98 192.42Q1087.98 190.5 1089.5 189.46Q1091.01 188.42 1094.15 188.32L1096.34 188.25V187.48Q1096.34 185.87 1095.64 185.25Q1094.94 184.62 1093.67 184.62Q1092.66 184.62 1091.75 184.92Q1090.84 185.22 1090.05 185.61L1089.4 184.02Q1090.24 183.57 1091.39 183.24Q1092.54 182.92 1093.79 182.92ZM1094.42 189.78Q1092.02 189.88 1091.09 190.55Q1090.17 191.22 1090.17 192.45Q1090.17 193.53 1090.83 194.03Q1091.49 194.54 1092.52 194.54Q1094.15 194.54 1095.23 193.64Q1096.31 192.74 1096.31 190.86V189.71ZM1108.58 182.9Q1110.88 182.9 1112.06 184.01Q1113.23 185.13 1113.23 187.62V196H1111.14V187.77Q1111.14 186.21 1110.45 185.44Q1109.75 184.67 1108.26 184.67Q1106.13 184.67 1105.31 185.87Q1104.5 187.07 1104.5 189.33V196H1102.38V183.14H1104.09L1104.4 184.89H1104.52Q1104.95 184.22 1105.59 183.77Q1106.22 183.33 1106.99 183.11Q1107.76 182.9 1108.58 182.9ZM1121.78 196.24Q1119.38 196.24 1117.94 194.57Q1116.5 192.9 1116.5 189.59Q1116.5 186.28 1117.95 184.59Q1119.4 182.9 1121.8 182.9Q1122.81 182.9 1123.55 183.15Q1124.3 183.4 1124.85 183.83Q1125.4 184.26 1125.78 184.79H1125.93Q1125.9 184.48 1125.84 183.87Q1125.78 183.26 1125.78 182.9V177.76H1127.9V196H1126.19L1125.88 194.27H1125.78Q1125.4 194.82 1124.85 195.27Q1124.3 195.71 1123.54 195.98Q1122.78 196.24 1121.78 196.24ZM1122.11 194.49Q1124.15 194.49 1124.98 193.37Q1125.81 192.26 1125.81 190V189.62Q1125.81 187.22 1125.02 185.93Q1124.22 184.65 1122.09 184.65Q1120.38 184.65 1119.53 186Q1118.68 187.36 1118.68 189.64Q1118.68 191.94 1119.53 193.22Q1120.38 194.49 1122.11 194.49ZM1140.35 192.45Q1140.35 193.7 1139.73 194.54Q1139.1 195.38 1137.95 195.81Q1136.8 196.24 1135.22 196.24Q1133.87 196.24 1132.9 196.02Q1131.93 195.81 1131.18 195.42V193.5Q1131.95 193.89 1133.04 194.21Q1134.14 194.54 1135.26 194.54Q1136.87 194.54 1137.59 194.02Q1138.31 193.5 1138.31 192.64Q1138.31 192.16 1138.05 191.78Q1137.78 191.39 1137.1 191.01Q1136.42 190.62 1135.14 190.14Q1133.9 189.66 1133.01 189.18Q1132.12 188.7 1131.64 188.03Q1131.16 187.36 1131.16 186.3Q1131.16 184.67 1132.49 183.78Q1133.82 182.9 1135.98 182.9Q1137.16 182.9 1138.18 183.12Q1139.2 183.35 1140.09 183.76L1139.37 185.44Q1138.55 185.1 1137.66 184.86Q1136.78 184.62 1135.84 184.62Q1134.54 184.62 1133.86 185.04Q1133.18 185.46 1133.18 186.18Q1133.18 186.71 1133.49 187.08Q1133.8 187.46 1134.53 187.8Q1135.26 188.15 1136.49 188.63Q1137.71 189.09 1138.58 189.57Q1139.44 190.05 1139.9 190.73Q1140.35 191.42 1140.35 192.45ZM1143.16 194.7Q1143.16 193.82 1143.59 193.46Q1144.02 193.1 1144.62 193.1Q1145.25 193.1 1145.69 193.46Q1146.14 193.82 1146.14 194.7Q1146.14 195.57 1145.69 195.95Q1145.25 196.34 1144.62 196.34Q1144.02 196.34 1143.59 195.95Q1143.16 195.57 1143.16 194.7Z"/>
<rect x="394.75" y="220.75" width="90.5" height="30.5" rx="7.25" stroke="#2E3B44" stroke-opacity="0.22" stroke-width="1.5" fill="none"/>
<rect x="494.75" y="220.75" width="117.5" height="30.5" rx="7.25" stroke="#2E3B44" stroke-opacity="0.22" stroke-width="1.5" fill="none"/>
<rect x="621.75" y="220.75" width="56.5" height="30.5" rx="7.25" stroke="#2E3B44" stroke-opacity="0.22" stroke-width="1.5" fill="none"/>
<rect x="687.75" y="220.75" width="82.5" height="30.5" rx="7.25" stroke="#2E3B44" stroke-opacity="0.22" stroke-width="1.5" fill="none"/>
<path fill="#46555F" d="M414.01 240.06Q413.06 240.06 412.34 239.7Q411.63 239.34 411.24 238.67Q410.85 237.99 410.85 237.08V235.06Q410.85 234.13 411.24 233.47Q411.63 232.8 412.34 232.44Q413.06 232.08 414.01 232.08Q415.4 232.08 416.24 232.81Q417.08 233.54 417.13 234.8H415.62Q415.58 234.14 415.15 233.77Q414.73 233.41 414.01 233.41Q413.24 233.41 412.8 233.83Q412.36 234.26 412.36 235.05V237.08Q412.36 237.87 412.8 238.3Q413.24 238.73 414.01 238.73Q414.73 238.73 415.15 238.36Q415.58 238 415.62 237.34H417.13Q417.08 238.6 416.24 239.33Q415.4 240.06 414.01 240.06ZM422.64 240.04Q421.69 240.04 420.99 239.68Q420.29 239.32 419.91 238.65Q419.53 237.97 419.53 237.06V235.08Q419.53 234.16 419.91 233.49Q420.29 232.82 420.99 232.46Q421.69 232.1 422.64 232.1Q423.6 232.1 424.29 232.46Q424.99 232.82 425.37 233.49Q425.75 234.16 425.75 235.07V237.06Q425.75 237.97 425.37 238.65Q424.99 239.32 424.29 239.68Q423.6 240.04 422.64 240.04ZM422.64 238.71Q423.4 238.71 423.82 238.29Q424.24 237.87 424.24 237.06V235.08Q424.24 234.27 423.82 233.85Q423.4 233.43 422.64 233.43Q421.89 233.43 421.46 233.85Q421.04 234.27 421.04 235.08V237.06Q421.04 237.87 421.46 238.29Q421.89 238.71 422.64 238.71ZM427.94 239.92V232.22H429.21V233.2H429.49L429.27 233.5Q429.27 232.85 429.63 232.46Q429.98 232.08 430.56 232.08Q431.19 232.08 431.54 232.57Q431.88 233.06 431.88 233.92L431.54 233.2H432.07L431.85 233.5Q431.85 232.85 432.21 232.46Q432.57 232.08 433.16 232.08Q433.88 232.08 434.29 232.62Q434.7 233.16 434.7 234.06V239.92H433.35V234.09Q433.35 233.66 433.16 233.42Q432.98 233.18 432.62 233.18Q432.28 233.18 432.09 233.42Q431.89 233.65 431.89 234.08V239.92H430.75V234.09Q430.75 233.65 430.56 233.42Q430.37 233.18 430.01 233.18Q429.66 233.18 429.48 233.42Q429.3 233.65 429.3 234.08V239.92ZM436.98 242.44V232.22H438.47V233.69H438.79L438.47 234.04Q438.47 233.13 439.04 232.6Q439.61 232.08 440.56 232.08Q441.72 232.08 442.42 232.86Q443.11 233.64 443.11 234.98V237.15Q443.11 238.04 442.8 238.69Q442.48 239.35 441.92 239.7Q441.35 240.06 440.56 240.06Q439.62 240.06 439.05 239.53Q438.47 239 438.47 238.1L438.79 238.45H438.45L438.49 240.24V242.44ZM440.04 238.75Q440.78 238.75 441.19 238.32Q441.6 237.89 441.6 237.08V235.06Q441.6 234.25 441.19 233.82Q440.78 233.39 440.04 233.39Q439.33 233.39 438.91 233.83Q438.49 234.27 438.49 235.06V237.08Q438.49 237.87 438.91 238.31Q439.33 238.75 440.04 238.75ZM448.68 240.04Q447.73 240.04 447.03 239.68Q446.33 239.32 445.95 238.65Q445.57 237.97 445.57 237.06V235.08Q445.57 234.16 445.95 233.49Q446.33 232.82 447.03 232.46Q447.73 232.1 448.68 232.1Q449.64 232.1 450.33 232.46Q451.03 232.82 451.41 233.49Q451.79 234.16 451.79 235.07V237.06Q451.79 237.97 451.41 238.65Q451.03 239.32 450.33 239.68Q449.64 240.04 448.68 240.04ZM448.68 238.71Q449.44 238.71 449.86 238.29Q450.28 237.87 450.28 237.06V235.08Q450.28 234.27 449.86 233.85Q449.44 233.43 448.68 233.43Q447.93 233.43 447.5 233.85Q447.08 234.27 447.08 235.08V237.06Q447.08 237.87 447.5 238.29Q447.93 238.71 448.68 238.71ZM457.1 240.04Q456.26 240.04 455.64 239.78Q455.02 239.52 454.66 239.04Q454.3 238.57 454.25 237.93H455.76Q455.82 238.31 456.17 238.54Q456.52 238.77 457.1 238.77H457.69Q458.38 238.77 458.73 238.49Q459.08 238.22 459.08 237.75Q459.08 237.3 458.76 237.05Q458.45 236.79 457.84 236.7L456.84 236.55Q455.62 236.36 455.03 235.84Q454.45 235.33 454.45 234.32Q454.45 233.26 455.14 232.68Q455.83 232.1 457.2 232.1H457.73Q458.93 232.1 459.65 232.65Q460.37 233.19 460.47 234.12H458.96Q458.9 233.78 458.58 233.58Q458.26 233.37 457.73 233.37H457.2Q456.54 233.37 456.24 233.61Q455.94 233.85 455.94 234.33Q455.94 234.76 456.2 234.97Q456.46 235.17 457.02 235.26L458.04 235.42Q459.35 235.61 459.96 236.15Q460.57 236.68 460.57 237.71Q460.57 238.81 459.85 239.43Q459.13 240.04 457.69 240.04ZM466.04 240.06Q465.1 240.06 464.4 239.69Q463.69 239.32 463.31 238.65Q462.93 237.97 462.93 237.08V235.06Q462.93 234.16 463.31 233.49Q463.69 232.82 464.4 232.45Q465.1 232.08 466.04 232.08Q466.99 232.08 467.69 232.45Q468.39 232.82 468.77 233.49Q469.15 234.16 469.15 235.06V236.43H464.39V237.08Q464.39 237.93 464.82 238.38Q465.24 238.83 466.05 238.83Q466.71 238.83 467.11 238.6Q467.52 238.37 467.62 237.92H469.11Q468.95 238.9 468.11 239.48Q467.27 240.06 466.04 240.06ZM467.69 235.52V235.05Q467.69 234.2 467.27 233.75Q466.86 233.29 466.04 233.29Q465.24 233.29 464.81 233.75Q464.39 234.21 464.39 235.06V235.41L467.8 235.4ZM514.49 240.06Q513.54 240.06 512.82 239.7Q512.11 239.34 511.72 238.67Q511.33 237.99 511.33 237.08V235.06Q511.33 234.13 511.72 233.47Q512.11 232.8 512.82 232.44Q513.54 232.08 514.49 232.08Q515.88 232.08 516.72 232.81Q517.56 233.54 517.61 234.8H516.1Q516.06 234.14 515.63 233.77Q515.21 233.41 514.49 233.41Q513.72 233.41 513.28 233.83Q512.84 234.26 512.84 235.05V237.08Q512.84 237.87 513.28 238.3Q513.72 238.73 514.49 238.73Q515.21 238.73 515.63 238.36Q516.06 238 516.1 237.34H517.61Q517.56 238.6 516.72 239.33Q515.88 240.06 514.49 240.06ZM523.12 240.04Q522.17 240.04 521.47 239.68Q520.77 239.32 520.39 238.65Q520.01 237.97 520.01 237.06V235.08Q520.01 234.16 520.39 233.49Q520.77 232.82 521.47 232.46Q522.17 232.1 523.12 232.1Q524.08 232.1 524.77 232.46Q525.47 232.82 525.85 233.49Q526.23 234.16 526.23 235.07V237.06Q526.23 237.97 525.85 238.65Q525.47 239.32 524.77 239.68Q524.08 240.04 523.12 240.04ZM523.12 238.71Q523.88 238.71 524.3 238.29Q524.72 237.87 524.72 237.06V235.08Q524.72 234.27 524.3 233.85Q523.88 233.43 523.12 233.43Q522.37 233.43 521.94 233.85Q521.52 234.27 521.52 235.08V237.06Q521.52 237.87 521.94 238.29Q522.37 238.71 523.12 238.71ZM528.42 239.92V232.22H529.69V233.2H529.97L529.75 233.5Q529.75 232.85 530.11 232.46Q530.46 232.08 531.04 232.08Q531.67 232.08 532.02 232.57Q532.36 233.06 532.36 233.92L532.02 233.2H532.55L532.33 233.5Q532.33 232.85 532.69 232.46Q533.05 232.08 533.64 232.08Q534.36 232.08 534.77 232.62Q535.18 233.16 535.18 234.06V239.92H533.83V234.09Q533.83 233.66 533.64 233.42Q533.46 233.18 533.1 233.18Q532.76 233.18 532.57 233.42Q532.37 233.65 532.37 234.08V239.92H531.23V234.09Q531.23 233.65 531.04 233.42Q530.85 233.18 530.49 233.18Q530.14 233.18 529.96 233.42Q529.78 233.65 529.78 234.08V239.92ZM537.46 242.44V232.22H538.95V233.69H539.27L538.95 234.04Q538.95 233.13 539.52 232.6Q540.09 232.08 541.04 232.08Q542.2 232.08 542.9 232.86Q543.59 233.64 543.59 234.98V237.15Q543.59 238.04 543.28 238.69Q542.96 239.35 542.4 239.7Q541.83 240.06 541.04 240.06Q540.1 240.06 539.53 239.53Q538.95 239 538.95 238.1L539.27 238.45H538.93L538.97 240.24V242.44ZM540.52 238.75Q541.26 238.75 541.67 238.32Q542.08 237.89 542.08 237.08V235.06Q542.08 234.25 541.67 233.82Q541.26 233.39 540.52 233.39Q539.81 233.39 539.39 233.83Q538.97 234.27 538.97 235.06V237.08Q538.97 237.87 539.39 238.31Q539.81 238.75 540.52 238.75ZM549.16 240.04Q548.21 240.04 547.51 239.68Q546.81 239.32 546.43 238.65Q546.05 237.97 546.05 237.06V235.08Q546.05 234.16 546.43 233.49Q546.81 232.82 547.51 232.46Q548.21 232.1 549.16 232.1Q550.12 232.1 550.81 232.46Q551.51 232.82 551.89 233.49Q552.27 234.16 552.27 235.07V237.06Q552.27 237.97 551.89 238.65Q551.51 239.32 550.81 239.68Q550.12 240.04 549.16 240.04ZM549.16 238.71Q549.92 238.71 550.34 238.29Q550.76 237.87 550.76 237.06V235.08Q550.76 234.27 550.34 233.85Q549.92 233.43 549.16 233.43Q548.41 233.43 547.98 233.85Q547.56 234.27 547.56 235.08V237.06Q547.56 237.87 547.98 238.29Q548.41 238.71 549.16 238.71ZM557.58 240.04Q556.74 240.04 556.12 239.78Q555.5 239.52 555.14 239.04Q554.78 238.57 554.73 237.93H556.24Q556.3 238.31 556.65 238.54Q557 238.77 557.58 238.77H558.17Q558.86 238.77 559.21 238.49Q559.56 238.22 559.56 237.75Q559.56 237.3 559.24 237.05Q558.93 236.79 558.32 236.7L557.32 236.55Q556.1 236.36 555.51 235.84Q554.93 235.33 554.93 234.32Q554.93 233.26 555.62 232.68Q556.31 232.1 557.68 232.1H558.21Q559.41 232.1 560.13 232.65Q560.85 233.19 560.95 234.12H559.44Q559.38 233.78 559.06 233.58Q558.74 233.37 558.21 233.37H557.68Q557.02 233.37 556.72 233.61Q556.42 233.85 556.42 234.33Q556.42 234.76 556.68 234.97Q556.94 235.17 557.5 235.26L558.52 235.42Q559.83 235.61 560.44 236.15Q561.05 236.68 561.05 237.71Q561.05 238.81 560.33 239.43Q559.61 240.04 558.17 240.04ZM566.52 240.06Q565.58 240.06 564.88 239.69Q564.17 239.32 563.79 238.65Q563.41 237.97 563.41 237.08V235.06Q563.41 234.16 563.79 233.49Q564.17 232.82 564.88 232.45Q565.58 232.08 566.52 232.08Q567.47 232.08 568.17 232.45Q568.87 232.82 569.25 233.49Q569.63 234.16 569.63 235.06V236.43H564.87V237.08Q564.87 237.93 565.3 238.38Q565.72 238.83 566.53 238.83Q567.19 238.83 567.59 238.6Q568 238.37 568.1 237.92H569.59Q569.43 238.9 568.59 239.48Q567.75 240.06 566.52 240.06ZM568.17 235.52V235.05Q568.17 234.2 567.75 233.75Q567.34 233.29 566.52 233.29Q565.72 233.29 565.29 233.75Q564.87 234.21 564.87 235.06V235.41L568.28 235.4ZM572.96 235.99V234.61H577.44V235.99ZM580.86 239.92V229.7H582.37V232.22L582.35 233.69H582.72L582.35 234.04Q582.35 233.11 582.9 232.6Q583.45 232.08 584.41 232.08Q585.56 232.08 586.25 232.81Q586.93 233.55 586.93 234.8V239.92H585.42V234.96Q585.42 234.21 585.01 233.79Q584.61 233.37 583.91 233.37Q583.19 233.37 582.78 233.81Q582.37 234.25 582.37 235.06V239.92ZM591.79 240.06Q590.59 240.06 589.9 239.43Q589.2 238.81 589.2 237.74Q589.2 236.64 589.93 236.02Q590.67 235.4 591.95 235.4H594.1V234.69Q594.1 234.06 593.7 233.71Q593.31 233.36 592.6 233.36Q591.98 233.36 591.56 233.63Q591.13 233.89 591.06 234.35H589.57Q589.7 233.31 590.53 232.7Q591.37 232.08 592.64 232.08Q594.01 232.08 594.81 232.78Q595.61 233.47 595.61 234.66V239.92H594.14V238.51H593.89L594.14 238.22Q594.14 239.07 593.5 239.56Q592.86 240.06 591.79 240.06ZM592.24 238.9Q593.06 238.9 593.58 238.49Q594.1 238.08 594.1 237.43V236.42H591.98Q591.4 236.42 591.06 236.74Q590.71 237.07 590.71 237.62Q590.71 238.22 591.12 238.56Q591.52 238.9 592.24 238.9ZM638.34 239.92V229.7H639.85V235.32H641.2L643.25 232.22H644.96L642.51 235.92L645.01 239.92H643.26L641.21 236.61H639.85V239.92ZM650 240.06Q649.02 240.06 648.31 239.72Q647.59 239.39 647.2 238.76Q646.8 238.14 646.8 237.31Q646.8 236.39 647.31 235.73Q647.82 235.07 648.87 234.58L650.33 233.9Q650.89 233.64 651.21 233.2Q651.52 232.75 651.52 232.22Q651.52 231.6 651.11 231.23Q650.7 230.86 650 230.86Q649.3 230.86 648.89 231.24Q648.48 231.61 648.48 232.23Q648.48 232.75 648.79 233.19Q649.1 233.63 649.63 233.89L651.09 234.56Q652.2 235.07 652.7 235.73Q653.2 236.4 653.2 237.31Q653.2 238.57 652.33 239.32Q651.47 240.06 650 240.06ZM650 238.75Q650.79 238.75 651.25 238.33Q651.71 237.92 651.71 237.24Q651.71 236.69 651.4 236.23Q651.09 235.76 650.54 235.5L649.03 234.78Q647.99 234.29 647.49 233.66Q646.99 233.03 646.99 232.16Q646.99 231.38 647.36 230.79Q647.73 230.2 648.4 229.87Q649.08 229.55 650 229.55Q650.92 229.55 651.6 229.87Q652.27 230.2 652.63 230.79Q653 231.38 653 232.16Q653 233.04 652.5 233.66Q652.01 234.28 650.95 234.79L649.43 235.51Q648.9 235.76 648.59 236.22Q648.29 236.68 648.29 237.22Q648.29 237.91 648.75 238.33Q649.21 238.75 650 238.75ZM658.42 240.04Q657.58 240.04 656.96 239.78Q656.34 239.52 655.98 239.04Q655.62 238.57 655.57 237.93H657.08Q657.14 238.31 657.49 238.54Q657.84 238.77 658.42 238.77H659.01Q659.7 238.77 660.05 238.49Q660.4 238.22 660.4 237.75Q660.4 237.3 660.08 237.05Q659.77 236.79 659.16 236.7L658.16 236.55Q656.94 236.36 656.35 235.84Q655.77 235.33 655.77 234.32Q655.77 233.26 656.46 232.68Q657.15 232.1 658.52 232.1H659.05Q660.25 232.1 660.97 232.65Q661.69 233.19 661.79 234.12H660.28Q660.22 233.78 659.9 233.58Q659.58 233.37 659.05 233.37H658.52Q657.86 233.37 657.56 233.61Q657.26 233.85 657.26 234.33Q657.26 234.76 657.52 234.97Q657.78 235.17 658.34 235.26L659.36 235.42Q660.67 235.61 661.28 236.15Q661.89 236.68 661.89 237.71Q661.89 238.81 661.17 239.43Q660.45 240.04 659.01 240.04ZM704.32 239.92V229.7H705.83V235.32H707.18L709.23 232.22H710.94L708.49 235.92L710.99 239.92H709.24L707.19 236.61H705.83V239.92ZM715.98 240.06Q715 240.06 714.29 239.72Q713.57 239.39 713.18 238.76Q712.78 238.14 712.78 237.31Q712.78 236.39 713.29 235.73Q713.8 235.07 714.85 234.58L716.31 233.9Q716.87 233.64 717.19 233.2Q717.5 232.75 717.5 232.22Q717.5 231.6 717.09 231.23Q716.68 230.86 715.98 230.86Q715.28 230.86 714.87 231.24Q714.46 231.61 714.46 232.23Q714.46 232.75 714.77 233.19Q715.08 233.63 715.61 233.89L717.07 234.56Q718.18 235.07 718.68 235.73Q719.18 236.4 719.18 237.31Q719.18 238.57 718.31 239.32Q717.45 240.06 715.98 240.06ZM715.98 238.75Q716.77 238.75 717.23 238.33Q717.69 237.92 717.69 237.24Q717.69 236.69 717.38 236.23Q717.07 235.76 716.52 235.5L715.01 234.78Q713.97 234.29 713.47 233.66Q712.97 233.03 712.97 232.16Q712.97 231.38 713.34 230.79Q713.71 230.2 714.38 229.87Q715.06 229.55 715.98 229.55Q716.9 229.55 717.58 229.87Q718.25 230.2 718.61 230.79Q718.98 231.38 718.98 232.16Q718.98 233.04 718.48 233.66Q717.99 234.28 716.93 234.79L715.41 235.51Q714.88 235.76 714.57 236.22Q714.27 236.68 714.27 237.22Q714.27 237.91 714.73 238.33Q715.19 238.75 715.98 238.75ZM724.4 240.04Q723.56 240.04 722.94 239.78Q722.32 239.52 721.96 239.04Q721.6 238.57 721.55 237.93H723.06Q723.12 238.31 723.47 238.54Q723.82 238.77 724.4 238.77H724.99Q725.68 238.77 726.03 238.49Q726.38 238.22 726.38 237.75Q726.38 237.3 726.06 237.05Q725.75 236.79 725.14 236.7L724.14 236.55Q722.92 236.36 722.33 235.84Q721.75 235.33 721.75 234.32Q721.75 233.26 722.44 232.68Q723.13 232.1 724.5 232.1H725.03Q726.23 232.1 726.95 232.65Q727.67 233.19 727.77 234.12H726.26Q726.2 233.78 725.88 233.58Q725.56 233.37 725.03 233.37H724.5Q723.84 233.37 723.54 233.61Q723.24 233.85 723.24 234.33Q723.24 234.76 723.5 234.97Q723.76 235.17 724.32 235.26L725.34 235.42Q726.65 235.61 727.26 236.15Q727.87 236.68 727.87 237.71Q727.87 238.81 727.15 239.43Q726.43 240.04 724.99 240.04ZM731.1 235.99V234.61H735.58V235.99ZM739 239.92V229.7H740.51V232.22L740.49 233.69H740.86L740.49 234.04Q740.49 233.11 741.04 232.6Q741.59 232.08 742.55 232.08Q743.7 232.08 744.39 232.81Q745.07 233.55 745.07 234.8V239.92H743.56V234.96Q743.56 234.21 743.15 233.79Q742.75 233.37 742.05 233.37Q741.33 233.37 740.92 233.81Q740.51 234.25 740.51 235.06V239.92ZM749.93 240.06Q748.73 240.06 748.04 239.43Q747.34 238.81 747.34 237.74Q747.34 236.64 748.07 236.02Q748.81 235.4 750.09 235.4H752.24V234.69Q752.24 234.06 751.84 233.71Q751.45 233.36 750.74 233.36Q750.12 233.36 749.7 233.63Q749.27 233.89 749.2 234.35H747.71Q747.84 233.31 748.67 232.7Q749.51 232.08 750.78 232.08Q752.15 232.08 752.95 232.78Q753.75 233.47 753.75 234.66V239.92H752.28V238.51H752.03L752.28 238.22Q752.28 239.07 751.64 239.56Q751 240.06 749.93 240.06ZM750.38 238.9Q751.2 238.9 751.72 238.49Q752.24 238.08 752.24 237.43V236.42H750.12Q749.54 236.42 749.2 236.74Q748.85 237.07 748.85 237.62Q748.85 238.22 749.26 238.56Q749.66 238.9 750.38 238.9Z"/>
</svg>
